<?xml version="1.0" standalone="no"?>
<!DOCTYPE svg PUBLIC "-//W3C//DTD SVG 1.1//EN" "http://www.w3.org/Graphics/SVG/1.1/DTD/svg11.dtd" >
<!--
2013-9-30: Created.
-->
<svg>
<metadata>
Created by iconfont
</metadata>
<defs>

<font id="iconfont" horiz-adv-x="1024" >
  <font-face
    font-family="iconfont"
    font-weight="500"
    font-stretch="normal"
    units-per-em="1024"
    ascent="896"
    descent="-128"
  />
    <missing-glyph />
    
    <glyph glyph-name="-taofanyvjing" unicode="&#59045;" d="M794.0388576 114.24914239999998a166.9607616 166.9607616 0 0 1-5.26628587 30.81752427A65.92609493 65.92609493 0 0 1 765.56190507 178.02971413a150.38171413 150.38171413 0 0 1-36.2788576 19.5047616 442.75809493 442.75809493 0 0 1-41.74018987 15.2137152 294.71695253 294.71695253 0 0 0-39.00952427 14.04342827 110.39695253 110.39695253 0 0 0-32.1828576 19.5047616 78.01904747 78.01904747 0 0 0-16.77409493 23.0156192 69.24190507 69.24190507 0 0 0-6.2415232 23.9908576 97.52380907 97.52380907 0 0 0 1.5603808 23.79580907 47.78666667 47.78666667 0 0 0 11.70285653 27.6967616L629.02857173 364.49523839999995a55.39352427 55.39352427 0 0 1 10.7276192 15.01866667c2.92571413 6.6316192 5.6563808 13.2632384 8.38704747 19.5047616s4.87619093 16.57904747 7.2167616 24.96609493a35.3036192 35.3036192 0 0 1 13.8483808 8.582096 52.46780907 52.46780907 0 0 1 10.7276192 15.21371413 78.01904747 78.01904747 0 0 1 6.24152427 25.94133334 63.58552427 63.58552427 0 0 1 0 21.0651424 51.29752427 51.29752427 0 0 1-4.486096 14.04342826 31.2076192 31.2076192 0 0 1-7.99695254 10.1424768 522.7276192 522.7276192 0 0 1-3.90095146 63.0003808 408.42971413 408.42971413 0 0 1-12.288 57.14895254A175.5428576 175.5428576 0 0 1 629.02857173 694.5158090699999 124.05028587 124.05028587 0 0 1 606.59809493 715.58095253a192.31695253 192.31695253 0 0 1-72.1676192 32.96304747A167.936 167.936 0 0 1 492.4952384 754.59047573a234.0571424 234.0571424 0 0 1-34.91352427-2.73066666 145.70057173 145.70057173 0 0 1-35.8887616-10.53257067 147.456 147.456 0 0 1-35.10857173-21.4552384A141.99466667 141.99466667 0 0 1 355.96190507 684.5683808a172.81219093 172.81219093 0 0 1-23.21066667-51.49257173 383.4636192 383.4636192 0 0 1-11.11771413-54.02818987 429.1047616 429.1047616 0 0 1-2.9257152-58.51428587 53.248 53.248 0 0 1-9.55733334-16.384 68.0716192 68.0716192 0 0 1-3.90095146-19.5047616 53.63809493 53.63809493 0 0 1 3.31580906-23.9908576 69.0468576 69.0468576 0 0 1 8.58209494-19.5047616 63.78057173 63.78057173 0 0 1 9.7523808-10.7276192 28.47695253 28.47695253 0 0 1 10.1424768-5.46133333c2.34057173-8.38704747 4.6811424-16.77409493 7.2167616-24.96609493s5.26628587-13.2632384 7.99695253-19.50476267a50.1272384 50.1272384 0 0 1 10.33752427-15.21371413c7.80190507-6.82666667 15.4087616-14.04342827 22.82057066-21.45523734a43.4956192 43.4956192 0 0 0 11.7028576-28.28190506v-22.62552427a44.27580907 44.27580907 0 0 0-3.90095253-19.5047616 60.4647616 60.4647616 0 0 0-11.7028576-19.5047616 102.20495253 102.20495253 0 0 0-23.40571413-19.50476267 154.86780907 154.86780907 0 0 0-45.25104747-19.5047616 488.59428587 488.59428587 0 0 1-49.54209493-15.99390506 139.264 139.264 0 0 1-41.74019094-23.99085654A65.92609493 65.92609493 0 0 1 199.92380907 130.43809493000003a317.34247573 317.34247573 0 0 1-3.31580907-82.70018986 69.632 69.632 0 0 1 11.50780907-39.00952427 54.02819093 54.02819093 0 0 1 21.06514346-7.80190507c11.3127616-2.73066667 24.77104747-5.26628587 40.96-7.801904s34.3283808-5.0712384 54.02818987-7.41181013 39.00952427-4.48609493 59.8796192-6.2415232 39.00952427-3.31580907 58.51428587-4.29104747S478.45180907-25.600000000000023 492.4952384-25.600000000000023s30.81752427 0 50.12723733 1.5603808 40.3748576 2.5356192 60.65981014 4.29104747 41.5451424 4.096 62.4152384 6.6316192 39.00952427 5.6563808 56.75885653 8.97219093a406.4792384 406.4792384 0 0 1 43.10552427 10.53257067 43.30057173 43.30057173 0 0 1 19.5047616 10.92266666 70.02209493 70.02209493 0 0 1 7.6068576 24.966096 231.9116192 231.9116192 0 0 1 2.73066666 34.9135232 334.50666667 334.50666667 0 0 1-1.36533333 37.05904747zM470.84495253 511.75619093c-6.6316192-23.9908576-80.9447616-19.5047616-99.47428586-2.9257152-10.7276192 9.7523808-3.5108576 51.49257173 9.7523808 58.51428587 23.9908576 9.94742827 96.7436192-30.2323808 89.72190506-55.58857067z m53.44304747 0.97523734c-6.6316192 25.35619093 66.90133333 64.36571413 90.6971424 53.05295253 13.06819093-6.24152427 19.5047616-48.1767616 8.582096-58.51428587-18.72457173-15.7988576-92.06247573-18.52952427-99.2792384 5.46133334z"  horiz-adv-x="1024" />

    
    <glyph glyph-name="StopOutlined" unicode="&#59030;" d="M413.257143 102.765714L166.582857 349.44a69.12 69.12 0 0 0 97.828572 97.828571l148.845714-148.845714 346.331428 346.514286a69.12 69.12 0 1 0 97.828572-97.828572z m0 0"  horiz-adv-x="1024" />

    
    <glyph glyph-name="QuestionCircleFilled" unicode="&#59089;" d="M512 749.714286a365.714286 365.714286 0 1 1 365.714286-365.714286A365.714286 365.714286 0 0 1 512 749.714286z m-2.377143-621.714286a53.028571 53.028571 0 1 0 53.942857 53.028571 53.577143 53.577143 0 0 0-53.942857-53.028571z m145.005714 299.337143a352.548571 352.548571 0 0 0-67.474285-68.022857 124.525714 124.525714 0 0 1-33.28-36.571429A118.491429 118.491429 0 0 1 548.571429 274.285714h-76.8v20.114286a134.582857 134.582857 0 0 0 12.251428 61.44 189.622857 189.622857 0 0 0 49.371429 54.857143 372.297143 372.297143 0 0 1 44.251428 39.314286 53.577143 53.577143 0 0 1 11.154286 32.548571 54.857143 54.857143 0 0 1-19.748571 42.24 78.08 78.08 0 0 1-53.211429 18.285714 80.457143 80.457143 0 0 1-53.942857-18.285714 109.714286 109.714286 0 0 1-29.805714-54.857143c-2.742857-15.725714-78.628571-22.491429-77.714286 9.508572a131.474286 131.474286 0 0 0 45.897143 91.428571 163.291429 163.291429 0 0 0 111.908571 36.571429 168.411429 168.411429 0 0 0 115.931429-38.034286 114.651429 114.651429 0 0 0 43.154285-88.685714 97.828571 97.828571 0 0 0-15.725714-52.845715z m0 0"  horiz-adv-x="1024" />

    
    <glyph glyph-name="-cardphoto" unicode="&#59044;" d="M0 896h1024v-1024H0zM512 896a512 512 0 1 1 512-512A512 512 0 0 1 512 896zM512 680.610909a132.887273 132.887273 0 0 0 32.581818-3.956364 157.323636 157.323636 0 0 0 30.487273-10.472727 143.243636 143.243636 0 0 0 25.367273-15.127273 88.203636 88.203636 0 0 0 17.221818-16.98909 129.861818 129.861818 0 0 0 21.643636-42.472728 305.338182 305.338182 0 0 0 9.192727-44.683636 361.425455 361.425455 0 0 0 3.025455-48.872727 21.410909 21.410909 0 0 0 6.283636-7.796364 46.545455 46.545455 0 0 0 3.490909-10.938182 50.967273 50.967273 0 0 0 0-16.290909 64.465455 64.465455 0 0 0-4.887272-20.247273 41.658182 41.658182 0 0 0-8.378182-11.636363 27.694545 27.694545 0 0 0-10.705455-6.632728c-1.745455-6.516364-3.607273-12.916364-5.585454-19.316363s-4.189091-10.356364-6.516364-15.36a42.24 42.24 0 0 0-8.378182-11.636364c-5.934545-5.003636-11.636364-10.123636-17.687272-15.36a37.701818 37.701818 0 0 1-9.076364-21.410909 88.32 88.32 0 0 1-1.163636-18.385454 56.436364 56.436364 0 0 1 4.887272-18.618182 60.16 60.16 0 0 1 13.032728-17.803637 81.454545 81.454545 0 0 1 24.901818-15.127272 271.709091 271.709091 0 0 1 30.952727-10.938182 316.16 316.16 0 0 0 32.581818-11.636364 113.338182 113.338182 0 0 0 28.16-15.709091 50.036364 50.036364 0 0 0 17.454546-25.6 119.156364 119.156364 0 0 0 4.189091-23.272727 235.752727 235.752727 0 0 0 1.396363-28.625455A151.272727 151.272727 0 0 0 744.727273 128a53.876364 53.876364 0 0 0-5.818182-19.316364 32.930909 32.930909 0 0 0-16.290909-8.494545 337.454545 337.454545 0 0 0-32.814546-8.145455c-13.265455-2.56-27.694545-4.887273-43.985454-6.981818s-32.232727-3.723636-48.407273-5.12-31.301818-2.443636-46.545454-3.374545-27.927273-1.163636-38.865455-1.163637-23.272727 0-38.4 1.163637-29.556364 1.978182-45.149091 3.374545-30.836364 3.025455-46.545454 4.887273-29.323636 3.723636-41.89091 5.701818-23.272727 3.956364-31.883636 6.050909a40.610909 40.610909 0 0 0-16.290909 6.050909 53.410909 53.410909 0 0 0-8.843636 29.556364 240.523636 240.523636 0 0 0 2.56 64A50.967273 50.967273 0 0 0 302.545455 230.63272700000005a112.058182 112.058182 0 0 0 32.34909 18.618182c12.567273 4.654545 25.367273 8.843636 38.4 12.334546a119.156364 119.156364 0 0 1 34.909091 15.70909 81.454545 81.454545 0 0 1 18.152728 15.127273 49.454545 49.454545 0 0 1 9.076363 14.429091 35.84 35.84 0 0 1 3.025455 15.127273c0 5.236364 0 11.054545-0.698182 17.570909a33.629091 33.629091 0 0 1-9.076364 21.992727c-5.701818 5.818182-11.636364 11.636364-17.687272 16.64a38.050909 38.050909 0 0 0-7.912728 11.636364l-6.283636 15.476363c-1.978182 6.4-3.84 12.8-5.585455 19.316364a24.552727 24.552727 0 0 0-7.912727 4.189091 46.545455 46.545455 0 0 0-7.447273 8.494545 50.967273 50.967273 0 0 0-6.74909 15.709091 42.356364 42.356364 0 0 0-2.56 18.618182 58.181818 58.181818 0 0 0 3.025454 14.545455 40.029091 40.029091 0 0 0 7.447273 12.683636 302.545455 302.545455 0 0 0 2.327273 45.847273 280.436364 280.436364 0 0 0 8.145454 41.658182 132.654545 132.654545 0 0 0 17.92 39.912727 113.454545 113.454545 0 0 0 24.203636 27.461818 118.690909 118.690909 0 0 0 27.229091 16.64 116.363636 116.363636 0 0 0 27.927273 8.145455A175.825455 175.825455 0 0 0 512 680.727273z m0 0"  horiz-adv-x="1024" />

    
    <glyph glyph-name="-filled" unicode="&#59070;" d="M512 749.714286a365.714286 365.714286 0 1 1 365.714286-365.714286A365.714286 365.714286 0 0 1 512 749.714286z m45.714286-534.857143a45.714286 45.714286 0 0 0-91.428572 0v201.142857a45.714286 45.714286 0 0 0 91.428572 0z m-45.714286 292.571428a45.714286 45.714286 0 1 0 45.714286 45.714286 45.897143 45.897143 0 0 0-45.714286-45.714286z"  horiz-adv-x="1024" />

    
    <glyph glyph-name="-carecar" unicode="&#59039;" d="M512 896a512 512 0 1 1 512-512A512 512 0 0 1 512 896zM512 896a512 512 0 1 1 512-512A512 512 0 0 1 512 896zM798.254545 481.745455h-56.436363s-14.196364 33.861818-30.952727 74.58909-35.956364 64.465455-78.661819 64.465455h-240.872727c-43.170909 0-61.905455-23.272727-78.661818-64.465455s-30.952727-74.589091-30.952727-74.58909h-56.552728A15.709091 15.709091 0 0 1 209.454545 465.454545v-14.42909a15.825455 15.825455 0 0 1 15.709091-15.709091h20.363637c-6.865455-13.149091-16.989091-151.272727-16.989091-152.203637V174.54545499999995A28.043636 28.043636 0 0 1 256 147.20000000000005h43.054545a28.16 28.16 0 0 1 19.898182 8.145455 28.509091 28.509091 0 0 1 8.261818 19.898181v34.909091h369.454546v-34.909091a28.043636 28.043636 0 0 1 27.694545-28.043636h42.938182a28.16 28.16 0 0 1 19.898182 8.145455 28.509091 28.509091 0 0 1 8.261818 19.898181v108.567273c0 1.745455-10.705455 139.636364-16.989091 152.32h20.363637A15.709091 15.709091 0 0 1 814.545455 451.84V465.454545a15.709091 15.709091 0 0 1-16.29091 16.174546zM346.763636 261.818182a42.472727 42.472727 0 1 0 41.658182 42.356363 42.589091 42.589091 0 0 0-41.658182-42.356363z m128 9.192727h-23.272727a16.523636 16.523636 0 0 0-11.636364 5.003636 16.989091 16.989091 0 0 0-5.003636 11.636364v11.636364a17.105455 17.105455 0 0 0 16.989091 16.989091h119.970909a17.454545 17.454545 0 0 0 11.636364-5.003637 16.872727 16.872727 0 0 0 4.887272-11.636363v-11.636364a16.872727 16.872727 0 0 0-16.872727-16.872727h-96.581818z m-102.167272 162.909091a46.545455 46.545455 0 0 0-46.545455 36.189091 210.734545 210.734545 0 0 0 38.4 97.978182h293.934546a200.843636 200.843636 0 0 0 37.701818-98.094546 46.545455 46.545455 0 0 0-46.545455-36.189091zM676.654545 261.818182a42.356364 42.356364 0 1 0 38.05091 20.712727 42.356364 42.356364 0 0 0-38.05091-20.712727z m0 0"  horiz-adv-x="1024" />

    
    <glyph glyph-name="-careperson" unicode="&#59043;" d="M512 896a512 512 0 1 1 512-512A512 512 0 0 1 512 896zM512 680.610909a132.887273 132.887273 0 0 0 32.581818-3.956364 157.323636 157.323636 0 0 0 30.487273-10.472727 143.243636 143.243636 0 0 0 25.367273-15.127273 88.203636 88.203636 0 0 0 17.221818-16.98909 129.861818 129.861818 0 0 0 21.643636-42.472728 305.338182 305.338182 0 0 0 9.192727-44.683636 361.425455 361.425455 0 0 0 3.025455-48.872727 21.410909 21.410909 0 0 0 6.283636-7.796364 46.545455 46.545455 0 0 0 3.490909-10.938182 50.967273 50.967273 0 0 0 0-16.290909 64.465455 64.465455 0 0 0-4.887272-20.247273 41.658182 41.658182 0 0 0-8.378182-11.636363 27.694545 27.694545 0 0 0-10.705455-6.632728c-1.745455-6.516364-3.607273-12.916364-5.585454-19.316363s-4.189091-10.356364-6.516364-15.36a42.24 42.24 0 0 0-8.378182-11.636364c-5.934545-5.003636-11.636364-10.123636-17.687272-15.36a37.701818 37.701818 0 0 1-9.076364-21.410909 88.32 88.32 0 0 1-1.163636-18.385454 56.436364 56.436364 0 0 1 4.887272-18.618182 60.16 60.16 0 0 1 13.032728-17.803637 81.454545 81.454545 0 0 1 24.901818-15.127272 271.709091 271.709091 0 0 1 30.952727-10.938182 316.16 316.16 0 0 0 32.581818-11.636364 113.338182 113.338182 0 0 0 28.16-15.709091 50.036364 50.036364 0 0 0 17.454546-25.6 119.156364 119.156364 0 0 0 4.189091-23.272727 235.752727 235.752727 0 0 0 1.396363-28.625455A151.272727 151.272727 0 0 0 744.727273 128a53.876364 53.876364 0 0 0-5.818182-19.316364 32.930909 32.930909 0 0 0-16.290909-8.494545 337.454545 337.454545 0 0 0-32.814546-8.145455c-13.265455-2.56-27.694545-4.887273-43.985454-6.981818s-32.232727-3.723636-48.407273-5.12-31.301818-2.443636-46.545454-3.374545-27.927273-1.163636-38.865455-1.163637-23.272727 0-38.4 1.163637-29.556364 1.978182-45.149091 3.374545-30.836364 3.025455-46.545454 4.887273-29.323636 3.723636-41.89091 5.701818-23.272727 3.956364-31.883636 6.050909a40.610909 40.610909 0 0 0-16.290909 6.050909 53.410909 53.410909 0 0 0-8.843636 29.556364 240.523636 240.523636 0 0 0 2.56 64A50.967273 50.967273 0 0 0 302.545455 230.63272700000005a112.058182 112.058182 0 0 0 32.34909 18.618182c12.567273 4.654545 25.367273 8.843636 38.4 12.334546a119.156364 119.156364 0 0 1 34.909091 15.70909 81.454545 81.454545 0 0 1 18.152728 15.127273 49.454545 49.454545 0 0 1 9.076363 14.429091 35.84 35.84 0 0 1 3.025455 15.127273c0 5.236364 0 11.054545-0.698182 17.570909a33.629091 33.629091 0 0 1-9.076364 21.992727c-5.701818 5.818182-11.636364 11.636364-17.687272 16.64a38.050909 38.050909 0 0 0-7.912728 11.636364l-6.283636 15.476363c-1.978182 6.4-3.84 12.8-5.585455 19.316364a24.552727 24.552727 0 0 0-7.912727 4.189091 46.545455 46.545455 0 0 0-7.447273 8.494545 50.967273 50.967273 0 0 0-6.74909 15.709091 42.356364 42.356364 0 0 0-2.56 18.618182 58.181818 58.181818 0 0 0 3.025454 14.545455 40.029091 40.029091 0 0 0 7.447273 12.683636 302.545455 302.545455 0 0 0 2.327273 45.847273 280.436364 280.436364 0 0 0 8.145454 41.658182 132.654545 132.654545 0 0 0 17.92 39.912727 113.454545 113.454545 0 0 0 24.203636 27.461818 118.690909 118.690909 0 0 0 27.229091 16.64 116.363636 116.363636 0 0 0 27.927273 8.145455A175.825455 175.825455 0 0 0 512 680.727273z m0 0"  horiz-adv-x="1024" />

    
    <glyph glyph-name="-menjinjilu" unicode="&#59037;" d="M568.868571 64.54857100000004h-114.285714l105.325714 13.531429A201.142857 201.142857 0 0 0 694.857143 380.342857V646.765714c0 25.782857-22.857143 31.451429-39.497143 34.011429l-210.285714 25.965714H724.114286c12.251429 0 40.045714-7.314286 39.497143-32.914286v-292.571428a196.571429 196.571429 0 0 0 46.445714-13.165714V694.857143c0 30.354286-31.268571 54.857143-69.668572 54.857143h-457.142857c-38.034286 0-65.828571-21.76-69.302857-53.76v-617.874286c0-35.291429 28.525714-59.794286 69.302857-59.794286h332.617143a205.165714 205.165714 0 0 0-46.994286 46.262857z m22.491429 351.634286A32.182857 32.182857 0 1 0 558.811429 384a32.182857 32.182857 0 0 0 32.548571 32.182857zM847.908571 298.97142899999994a164.571429 164.571429 0 1 1 0-232.411429 164.571429 164.571429 0 0 1 0 232.411429z m-38.4-175.542858a14.445714 14.445714 0 0 0-8.594285-6.948571 11.702857 11.702857 0 0 0-3.657143 0 15.177143 15.177143 0 0 0-7.314286 2.011429l-56.868571 34.377142a18.285714 18.285714 0 0 0-5.668572 4.022858c-7.131429 4.205714-10.788571 8.411429-10.788571 12.8v94.354285a15.542857 15.542857 0 0 0 15.36 15.36 15.36 15.36 0 0 0 15.177143-15.36v-87.588571l54.857143-32a15.725714 15.725714 0 0 0 6.765714-21.028572z m0 0"  horiz-adv-x="1024" />

    
    <glyph glyph-name="-zonghechaxun" unicode="&#59038;" d="M587.885714 749.714286H278.674286A75.52 75.52 0 0 1 201.142857 676.571429v-585.142858a75.52 75.52 0 0 1 78.262857-73.142857h465.92A75.52 75.52 0 0 1 822.857143 91.42857100000003V530.285714z m62.537143-650.057143a26.697143 26.697143 0 0 0-18.285714-7.862857 26.331429 26.331429 0 0 0-18.285714 7.862857l-36.022858 34.194286a136.594286 136.594286 0 1 0 38.034286 38.034285l34.56-34.56a26.88 26.88 0 0 0 0-38.034285zM548.571429 490.788571V693.028571l213.577142-202.24zM502.125714 330.24A82.834286 82.834286 0 1 1 585.142857 247.405714a82.834286 82.834286 0 0 1-83.017143 82.834286z"  horiz-adv-x="1024" />

    
    <glyph glyph-name="-cheliangjilu" unicode="&#59040;" d="M842.057143 336.09142899999995a161.645714 161.645714 0 1 1 0-228.388572 161.097143 161.097143 0 0 1 0 228.388572z m-36.571429-172.434286a14.445714 14.445714 0 0 0-8.594285-6.948572 11.702857 11.702857 0 0 0-3.657143 0 14.994286 14.994286 0 0 0-7.131429 2.011429l-55.954286 33.645714a17.005714 17.005714 0 0 0-5.302857 4.022857c-7.131429 4.022857-10.788571 8.411429-10.788571 12.617143V301.714286a15.177143 15.177143 0 0 0 30.171428 0v-86.125715l54.857143-31.451428a15.36 15.36 0 0 0 5.485715-20.48z m0 0M530.285714 221.80571399999997a198.582857 198.582857 0 0 0 1.462857 23.405715h-86.125714a19.931429 19.931429 0 0 0-20.114286 20.114285v13.531429a19.382857 19.382857 0 0 0 5.851429 14.262857 20.114286 20.114286 0 0 0 14.262857 5.851429h100.205714a197.851429 197.851429 0 0 0 296.96 83.017142 355.474286 355.474286 0 0 1-9.142857 59.245715h24.137143a18.285714 18.285714 0 0 1 18.285714 18.285714v16.274286a18.285714 18.285714 0 0 1-5.485714 13.897143 19.382857 19.382857 0 0 1-13.897143 5.485714H789.942857s-16.822857 40.045714-36.571428 88.502857-42.057143 76.434286-93.257143 76.434286H373.942857c-51.382857 0-73.142857-27.977143-93.44-76.434286s-36.571429-88.502857-36.571428-88.502857H176.64a18.285714 18.285714 0 0 1-13.165714-5.485714 18.285714 18.285714 0 0 1-5.485715-13.348572v-17.005714a18.285714 18.285714 0 0 1 18.285715-18.285714H201.142857c-8.045714-15.725714-20.114286-179.2-20.114286-180.845715v-128a33.28 33.28 0 0 1 32.731429-33.097143h51.017143a33.097143 33.097143 0 0 1 33.28 33.28v40.96h237.714286a204.434286 204.434286 0 0 0-5.485715 48.457143z m-224.365714 292.571429l10.422857 24.32a491.337143 491.337143 0 0 0 26.88 59.062857h347.428572a463.177143 463.177143 0 0 0 26.697142-59.062857l9.874286-24.502857 8.228572-32.914286a54.857143 54.857143 0 0 0-54.857143-42.971429h-329.142857a55.771429 55.771429 0 0 0-54.857143 42.971429z m15.542857-280.502857a50.285714 50.285714 0 1 0 49.371429 50.102857 50.102857 50.102857 0 0 0-49.737143-49.005714z"  horiz-adv-x="1024" />

    
    <glyph glyph-name="-duixiangbukong" unicode="&#59041;" d="M591.36 42.24000000000001l-7.862857 5.485714a224.731429 224.731429 0 0 0-21.76 18.285715 190.72 190.72 0 0 0-14.08 15.36 154.697143 154.697143 0 0 0-12.068572 16.091428c-2.56 3.84-4.937143 7.497143-7.131428 11.337143a227.657143 227.657143 0 0 0-11.154286 21.942857c-2.56 5.851429-4.754286 11.885714-6.765714 18.285714a252.525714 252.525714 0 0 0-8.228572 33.828572 247.04 247.04 0 0 0-1.828571 42.605714 168.96 168.96 0 0 0 2.925714 24.32 214.308571 214.308571 0 0 0 9.142857 34.56 260.022857 260.022857 0 0 0 13.165715 28.891429 133.302857 133.302857 0 0 0 0.914285 25.6 46.628571 46.628571 0 0 0 10.971429 26.88c6.948571 6.4 14.08 12.434286 21.394286 18.285714a48.274286 48.274286 0 0 1 10.057143 14.08c2.925714 6.217143 5.302857 12.251429 7.862857 18.285714s4.754286 15.542857 6.765714 23.222857a33.097143 33.097143 0 0 1 12.982857 8.045715 51.748571 51.748571 0 0 1 10.057143 14.262857 73.142857 73.142857 0 0 1 5.851429 24.32 59.794286 59.794286 0 0 1 0 19.748571 54.857143 54.857143 0 0 1-4.205715 13.165715 28.708571 28.708571 0 0 1-7.497143 9.325714 490.057143 490.057143 0 0 1-3.657142 59.062857 382.902857 382.902857 0 0 1-12.068572 53.942857 164.571429 164.571429 0 0 1-26.148571 51.2A105.325714 105.325714 0 0 1 538.148571 713.142857a166.765714 166.765714 0 0 1-30.537142 18.285714 203.52 203.52 0 0 1-36.571429 12.8 168.594286 168.594286 0 0 1-39.314286 4.571429 215.04 215.04 0 0 1-32.548571-2.56 135.68 135.68 0 0 1-33.462857-9.691429 142.628571 142.628571 0 0 1-32.731429-19.931428 137.325714 137.325714 0 0 1-29.257143-33.28 154.148571 154.148571 0 0 1-21.577143-48.091429 334.811429 334.811429 0 0 1-10.422857-50.102857 347.428571 347.428571 0 0 1-2.742857-54.857143 50.285714 50.285714 0 0 1-9.142857-15.36 71.131429 71.131429 0 0 1-3.474286-18.285714 52.48 52.48 0 0 1 2.925715-22.491429 57.965714 57.965714 0 0 1 8.228571-18.285714 53.76 53.76 0 0 1 8.96-10.24 32 32 0 0 1 9.508571-5.12c2.194286-7.862857 4.388571-15.542857 6.765715-23.222857l7.68-18.285714A44.251429 44.251429 0 0 1 310.857143 384c7.314286-6.4 14.445714-12.982857 21.211428-19.931429a40.594286 40.594286 0 0 0 10.971429-26.697142c0-7.862857 0.914286-14.811429 0.914286-21.211429a43.885714 43.885714 0 0 0-3.657143-18.285714 56.685714 56.685714 0 0 0-10.971429-18.285715 100.571429 100.571429 0 0 0-21.942857-18.285714 139.154286 139.154286 0 0 0-42.24-18.285714c-15.725714-4.205714-31.268571-9.325714-46.445714-14.994286a128 128 0 0 1-38.948572-22.491428A60.525714 60.525714 0 0 1 158.537143 164.57142899999997a294.765714 294.765714 0 0 1-3.108572-77.165715 64 64 0 0 1 10.788572-36.571428 49.554286 49.554286 0 0 1 19.565714-7.131429c10.605714-2.56 23.405714-4.937143 38.4-7.314286s32.182857-4.754286 50.651429-6.948571 36.571429-4.205714 54.857143-5.851429 36.571429-3.108571 54.857142-4.022857 33.28-1.462857 46.445715-1.462857 28.891429 0 46.811428 1.462857 37.851429 2.377143 56.685715 4.022857 52.662857 5.12 71.862857 8.228572l-2.56 1.462857c-3.84 3.291429-8.045714 6.034286-12.434286 8.96zM704.914286 377.96571400000005a164.571429 164.571429 0 1 1 164.571428-164.571428 164.571429 164.571429 0 0 1-164.571428 164.571428z m0-274.285714a23.405714 23.405714 0 1 0 23.405714 23.405714 23.222857 23.222857 0 0 0-23.405714-23.588571z m23.405714 93.257143a23.405714 23.405714 0 0 0-46.628571 0v102.582857a23.405714 23.405714 0 1 0 46.628571 0z"  horiz-adv-x="1024" />

    
    <glyph glyph-name="-shequguanhuai" unicode="&#59042;" d="M816.822857 36.571428999999966a256 256 0 0 1 34.925714 7.68 34.011429 34.011429 0 0 1 17.005715 8.594285 48.822857 48.822857 0 0 1 6.582857 19.565715 136.411429 136.411429 0 0 1 2.377143 27.794285 259.108571 259.108571 0 0 1-1.645715 29.257143 160.365714 160.365714 0 0 1-4.754285 24.685714 76.068571 76.068571 0 0 1-18.285715 27.977143 128 128 0 0 1-30.537142 16.64 349.257143 349.257143 0 0 1-36.205715 11.154286 234.057143 234.057143 0 0 0-33.645714 11.154286 85.211429 85.211429 0 0 0-27.428571 15.36 53.028571 53.028571 0 0 0-14.08 18.285714 48.457143 48.457143 0 0 0-4.571429 18.285714 111.725714 111.725714 0 0 0 1.097143 18.285715 45.897143 45.897143 0 0 0 4.022857 12.251428 29.805714 29.805714 0 0 0 6.034286 8.96c2.56 2.56 5.302857 4.937143 8.411428 7.497143a122.148571 122.148571 0 0 1 10.605715 8.594286 36.571429 36.571429 0 0 1 9.142857 11.52 112.822857 112.822857 0 0 1 7.314285 15.908571c2.011429 5.668571 3.657143 12.251429 5.668572 19.565714a23.771429 23.771429 0 0 1 11.52 6.582858 54.857143 54.857143 0 0 1 8.594286 12.251428 64.182857 64.182857 0 0 1 5.851428 21.028572 43.154286 43.154286 0 0 1 0 17.005714 51.748571 51.748571 0 0 1-4.022857 11.154286 41.508571 41.508571 0 0 1-6.582857 7.862857 259.474286 259.474286 0 0 1-2.925714 49.005714 367.908571 367.908571 0 0 1-11.154286 45.165714 121.051429 121.051429 0 0 1-66.377143 76.434286 142.445714 142.445714 0 0 1-66.194286 15.36 205.165714 205.165714 0 0 1-29.074285-2.377143 133.851429 133.851429 0 0 1-30.354286-8.228571 131.474286 131.474286 0 0 1-29.622857-17.005715A110.811429 110.811429 0 0 1 512 583.131429a130.56 130.56 0 0 1-19.382857-41.142858 376.502857 376.502857 0 0 1-8.777143-42.605714 341.211429 341.211429 0 0 1-2.377143-47.177143 49.554286 49.554286 0 0 1-7.68-12.8 41.874286 41.874286 0 0 1-3.84-14.994285 42.605714 42.605714 0 0 1 2.925714-19.2 53.76 53.76 0 0 1 7.497143-15.908572 40.045714 40.045714 0 0 1 7.497143-8.594286 76.068571 76.068571 0 0 1 8.594286-4.388571c2.011429-7.131429 3.657143-13.714286 5.668571-19.565714s4.388571-10.605714 6.948572-15.725715a35.291429 35.291429 0 0 1 8.96-12.434285 241.371429 241.371429 0 0 0 18.285714-16.274286 38.4 38.4 0 0 0 10.24-23.04v-18.285714a33.828571 33.828571 0 0 0-3.108571-15.177143 61.074286 61.074286 0 0 0-10.057143-14.445714 121.782857 121.782857 0 0 0-19.931429-15.725715 114.834286 114.834286 0 0 0-37.851428-16.457143 424.777143 424.777143 0 0 1-41.691429-12.617142 128 128 0 0 1-35.108571-18.285715 51.565714 51.565714 0 0 1-18.285715-34.742857 233.325714 233.325714 0 0 1-2.377143-65.28 60.525714 60.525714 0 0 1 9.508572-30.537143 51.931429 51.931429 0 0 1 18.285714-6.217143c9.508571-2.377143 21.028571-4.388571 34.925714-6.582857s28.891429-4.022857 45.348572-5.851428l49.92-4.571429c17.005714-1.462857 33.462857-2.56 49.005714-3.657143s29.622857-1.462857 41.691429-1.462857 26.148571 0 41.874285 1.462857 32.548571 2.194286 49.737143 3.657143 34.194286 3.108571 51.2 5.485714 33.097143 3.657143 47.177143 6.582858zM430.445714 247.03999999999996a188.708571 188.708571 0 0 1 40.411429 18.285714 29.074286 29.074286 0 0 1 10.24 9.508572 61.257143 61.257143 0 0 1 3.657143 12.434285 25.782857 25.782857 0 0 0-1.097143 10.24 17.188571 17.188571 0 0 1-2.377143 6.948572c-1.462857 1.645714-2.925714 3.474286-4.937143 5.485714a62.537143 62.537143 0 0 1-7.68 7.131429 38.217143 38.217143 0 0 0-9.874286 13.531428c-2.56 6.034286-4.754286 12.068571-6.765714 18.285715s-3.84 14.08-5.851428 21.942857a24.868571 24.868571 0 0 0-8.594286 5.668571 64.182857 64.182857 0 0 0-8.045714 10.057143 81.737143 81.737143 0 0 0-7.68 18.285714 55.954286 55.954286 0 0 0-2.925715 21.211429 59.611429 59.611429 0 0 0 3.657143 17.005714 42.971429 42.971429 0 0 0 8.777143 14.262857 392.594286 392.594286 0 0 0 3.291429 50.651429 465.92 465.92 0 0 0 10.971428 45.714286 154.88 154.88 0 0 0 21.942857 44.8 302.628571 302.628571 0 0 0 27.245715 31.634285 141.165714 141.165714 0 0 0 29.257142 23.588572c-2.742857 9.142857-5.12 18.285714-6.765714 24.502857a57.965714 57.965714 0 0 1-11.885714 22.674286 147.748571 147.748571 0 0 1-109.714286 47.908571 207.542857 207.542857 0 0 1-29.622857-2.194286 128 128 0 0 1-30.171429-8.411428 122.88 122.88 0 0 1-29.257142-17.005715 107.885714 107.885714 0 0 1-26.148572-28.16 135.862857 135.862857 0 0 1-19.565714-40.411428 323.474286 323.474286 0 0 1-9.508572-42.057143 272.64 272.64 0 0 1-2.194285-47.177143 35.474286 35.474286 0 0 1-7.862857-12.8 47.36 47.36 0 0 1-0.914286-34.56 76.617143 76.617143 0 0 1 7.497143-15.908571 40.045714 40.045714 0 0 1 7.497143-8.594286 73.142857 73.142857 0 0 1 8.594285-4.205714c2.011429-7.314286 3.84-13.897143 5.851429-19.565715s4.205714-10.605714 6.765714-15.908571a32.548571 32.548571 0 0 1 9.874286-11.52c6.582857-5.668571 12.982857-11.337143 18.285714-16.822857a38.582857 38.582857 0 0 0 9.691429-23.04c0-6.034286 0.914286-12.068571 0.914285-17.188572a41.874286 41.874286 0 0 0-2.925714-15.542857 45.531429 45.531429 0 0 0-9.691428-14.994285 146.285714 146.285714 0 0 0-20.297143-15.725715 137.142857 137.142857 0 0 0-37.851429-15.908571c-14.445714-3.657143-28.16-8.045714-41.691428-12.617143a115.748571 115.748571 0 0 1-35.291429-18.285714 53.577143 53.577143 0 0 1-18.285714-34.56 238.811429 238.811429 0 0 1-2.56-65.828572 53.577143 53.577143 0 0 1 9.691428-30.537143 62.354286 62.354286 0 0 1 21.028572-7.131428c11.154286-2.194286 25.051429-4.571429 41.142857-7.131429s33.828571-4.571429 53.211428-6.582857 38.217143-3.84 57.234286-5.302857c0 1.28 1.097143 1.828571 1.28 2.56a19.931429 19.931429 0 0 0 1.462857 2.742857c0 4.205714 0 8.777143 1.28 14.08a125.074286 125.074286 0 0 0 1.645715 15.542857 66.377143 66.377143 0 0 0 18.285714 40.228572 118.125714 118.125714 0 0 0 34.742857 22.857143c14.445714 6.582857 27.977143 10.971429 42.605714 15.908571z"  horiz-adv-x="1024" />

    
    <glyph glyph-name="-zhankai" unicode="&#59006;" d="M162.194286 253.44L475.428571 595.565714a49.371429 49.371429 0 0 0 73.142858 0l313.234285-342.125714a57.965714 57.965714 0 0 0-36.571428-97.645714H199.314286a57.965714 57.965714 0 0 0-36.571429 97.645714z m0 0"  horiz-adv-x="1024" />

    
    <glyph glyph-name="-shuoqi" unicode="&#59007;" d="M861.805714 514.56L548.571429 172.434286a49.371429 49.371429 0 0 0-73.142858 0L162.194286 514.56a57.965714 57.965714 0 0 0 36.571428 97.645714H824.685714a57.965714 57.965714 0 0 0 36.571429-97.645714z m0 0"  horiz-adv-x="1024" />

    
    <glyph glyph-name="-fanhui" unicode="&#59036;" d="M605.257143 568.685714h-144.457143v120.685715L146.285714 526.628571 462.628571 365.714286v120.685714h155.428572c122.514286 0 184.685714-53.028571 184.685714-159.085714 0-109.714286-64-162.742857-192-162.742857H248.685714v-84.114286h367.542857c173.714286 0 261.485714 80.457143 261.485715 239.542857 0 166.4-91.428571 248.685714-272.457143 248.685714z m0 0"  horiz-adv-x="1024" />

    
    <glyph glyph-name="-tongji" unicode="&#58991;" d="M877.714286 384c0-208.457143-173.714286-376.685714-385.828572-365.714286C307.2 29.257143 157.257143 179.2 146.285714 363.885714 135.314286 576 303.542857 749.714286 512 749.714286v-365.714286h365.714286z m-3.657143 53.028571H565.028571V746.057143c159.085714-23.771429 285.257143-149.942857 309.028572-309.028572z m0 0"  horiz-adv-x="1024" />

    
    <glyph glyph-name="-warning" unicode="&#58992;" d="M574.171429 669.257143c0-3.657143 5.485714-9.142857 14.628571-23.771429s18.285714-31.085714 31.085714-54.857143 27.428571-45.714286 42.057143-73.142857c14.628571-27.428571 32.914286-54.857143 49.371429-82.285714 14.628571-27.428571 32.914286-58.514286 49.371428-85.942857 14.628571-27.428571 31.085714-54.857143 45.714286-76.8 12.8-23.771429 23.771429-42.057143 36.571429-60.342857s14.628571-27.428571 21.942857-32.914286c5.485714-12.8 12.8-23.771429 12.8-36.571429 3.657143-12.8 0-21.942857-3.657143-32.914285-3.657143-12.8-9.142857-18.285714-14.628572-23.771429-9.142857-5.485714-18.285714-9.142857-31.085714-9.142857H210.285714c-18.285714 0-32.914286 3.657143-42.057143 9.142857-9.142857 5.485714-14.628571 14.628571-18.285714 23.771429-3.657143 5.485714-3.657143 18.285714-1.828571 27.428571 3.657143 12.8 5.485714 21.942857 14.628571 32.914286 3.657143 5.485714 9.142857 14.628571 18.285714 32.914286 9.142857 14.628571 21.942857 36.571429 36.571429 58.514285 14.628571 23.771429 31.085714 49.371429 45.714286 76.8s32.914286 58.514286 51.2 85.942857c18.285714 27.428571 32.914286 58.514286 49.371428 85.942858 14.628571 27.428571 31.085714 51.2 42.057143 73.142857 12.8 21.942857 23.771429 40.228571 32.914286 54.857143l14.628571 23.771428c5.485714 9.142857 14.628571 18.285714 27.428572 23.771429 12.8 5.485714 21.942857 9.142857 32.914285 9.142857 12.8 0 21.942857-3.657143 32.914286-5.485714 10.971429-1.828571 20.114286-10.971429 27.428572-20.114286z m-18.285715-140.8c0 5.485714 0 12.8-3.657143 14.628571-3.657143 5.485714-5.485714 9.142857-9.142857 12.8-3.657143 3.657143-9.142857 5.485714-14.628571 9.142857-5.485714 3.657143-12.8 5.485714-18.285714 5.485715-12.8 0-21.942857-3.657143-31.085715-12.8-9.142857-9.142857-14.628571-18.285714-14.628571-31.085715v-190.171428c0-12.8 5.485714-21.942857 14.628571-31.085714s18.285714-12.8 31.085715-12.8 21.942857 3.657143 31.085714 12.8c9.142857 9.142857 14.628571 18.285714 14.628571 31.085714V528.457143z m-45.714285-276.114286c-12.8 0-23.771429-3.657143-31.085715-12.8-5.485714-9.142857-12.8-18.285714-12.8-31.085714s3.657143-23.771429 12.8-31.085714c9.142857-9.142857 18.285714-12.8 31.085715-12.8s23.771429 3.657143 31.085714 12.8c9.142857 9.142857 12.8 18.285714 12.8 31.085714s-3.657143 23.771429-12.8 31.085714c-7.314286 9.142857-20.114286 12.8-31.085714 12.8z m0 0"  horiz-adv-x="1024" />

    
    <glyph glyph-name="-userManagement" unicode="&#58993;" d="M672.914286 385.828571c-40.228571-38.4-95.085714-60.342857-155.428572-60.342857s-117.028571 23.771429-157.257143 62.171429c-95.085714-25.6-155.428571-115.2-155.428571-221.257143v-54.857143c0-126.171429 616.228571-126.171429 616.228571 0v54.857143c0 104.228571-56.685714 192-148.114285 219.428571z m-155.428572-21.942857c106.057143 0 192 85.942857 192 192S623.542857 749.714286 517.485714 749.714286s-192-85.942857-192-192 85.942857-193.828571 192-193.828572z m0 0"  horiz-adv-x="1024" />

    
    <glyph glyph-name="-tucenggouxuan" unicode="&#58994;" d="M806.4 749.714286H217.6C177.371429 749.714286 146.285714 718.628571 146.285714 678.4v-588.8c0-40.228571 31.085714-71.314286 71.314286-71.314286h588.8c18.285714 0 36.571429 7.314286 51.2 20.114286 12.8 12.8 20.114286 31.085714 20.114286 51.2V678.4C877.714286 718.628571 846.628571 749.714286 806.4 749.714286z m-42.057143-252.342857L479.085714 213.942857c-7.314286-7.314286-18.285714-10.971429-27.428571-10.971428-10.971429 0-20.114286 3.657143-27.428572 10.971428l-164.571428 164.571429c-14.628571 16.457143-14.628571 40.228571 1.828571 54.857143 14.628571 14.628571 40.228571 16.457143 54.857143 1.828571l135.314286-135.314286 256 256c9.142857 10.971429 25.6 14.628571 38.4 10.971429 14.628571-3.657143 25.6-14.628571 29.257143-29.257143 3.657143-14.628571 0-29.257143-10.971429-40.228571z m0 0"  horiz-adv-x="1024" />

    
    <glyph glyph-name="-tishi" unicode="&#58995;" d="M512 18.285714C310.857143 18.285714 146.285714 182.857143 146.285714 384S310.857143 749.714286 512 749.714286s365.714286-164.571429 365.714286-365.714286-164.571429-365.714286-365.714286-365.714286z m-45.714286 389.485715v-179.2c0-21.942857 18.285714-42.057143 42.057143-42.057143 21.942857 0 42.057143 18.285714 42.057143 42.057143v179.2c0 21.942857-18.285714 42.057143-42.057143 42.057142-23.771429 0-42.057143-18.285714-42.057143-42.057142z m42.057143 173.714285c-10.971429 0-20.114286-3.657143-29.257143-10.971428-9.142857-7.314286-12.8-16.457143-12.8-29.257143 0-10.971429 3.657143-21.942857 12.8-29.257143 7.314286-7.314286 18.285714-12.8 29.257143-12.8 10.971429 0 21.942857 3.657143 29.257143 10.971429 7.314286 7.314286 10.971429 18.285714 10.971429 29.257142 0 12.8-3.657143 21.942857-10.971429 29.257143-7.314286 9.142857-18.285714 12.8-29.257143 12.8z m0 0"  horiz-adv-x="1024" />

    
    <glyph glyph-name="-address" unicode="&#58996;" d="M512 749.714286c-144.457143 0-263.314286-117.028571-263.314286-263.314286 0-29.257143 5.485714-58.514286 14.628572-85.942857 3.657143-12.8 9.142857-25.6 16.457143-36.571429 1.828571-5.485714 5.485714-9.142857 7.314285-12.8l173.714286-301.714285c21.942857-38.4 76.8-38.4 98.742857 0l175.542857 301.714285v1.828572l5.485715 9.142857v1.828571c7.314286 12.8 12.8 23.771429 16.457142 38.4 9.142857 27.428571 14.628571 56.685714 14.628572 85.942857C775.314286 632.685714 656.457143 749.714286 512 749.714286z m0-380.342857c-69.485714 0-124.342857 56.685714-124.342857 124.342857 0 69.485714 56.685714 124.342857 124.342857 124.342857 69.485714 0 124.342857-56.685714 124.342857-124.342857 0-67.657143-54.857143-124.342857-124.342857-124.342857z m0 0"  horiz-adv-x="1024" />

    
    <glyph glyph-name="-xiaoqu" unicode="&#58998;" d="M778.971429 592.457143H658.285714c-36.571429 0-38.4-7.314286-38.4 38.4v80.457143c0 21.942857-16.457143 38.4-38.4 38.4H245.028571c-21.942857 0-38.4-16.457143-38.4-38.4v-654.628572c0-21.942857 16.457143-38.4 38.4-38.4h535.771429c21.942857 0 38.4 16.457143 38.4 38.4V554.057143c-1.828571 21.942857-18.285714 38.4-40.228571 38.4z m-453.485715 38.4h173.714286c9.142857 0 14.628571-7.314286 14.628571-14.628572v-74.971428c0-9.142857-7.314286-14.628571-14.628571-14.628572h-173.714286c-9.142857 0-14.628571 7.314286-14.628571 14.628572v74.971428c0 7.314286 7.314286 14.628571 14.628571 14.628572z m0-157.257143h173.714286c9.142857 0 14.628571-7.314286 14.628571-14.628571V384c0-9.142857-7.314286-14.628571-14.628571-14.628571h-173.714286c-9.142857 0-14.628571 7.314286-14.628571 14.628571v74.971429c0 7.314286 7.314286 14.628571 14.628571 14.628571zM310.857143 226.742857v74.971429c0 9.142857 7.314286 14.628571 14.628571 14.628571h173.714286c9.142857 0 14.628571-7.314286 14.628571-14.628571v-74.971429c0-9.142857-7.314286-14.628571-14.628571-14.628571h-173.714286c-7.314286 0-14.628571 5.485714-14.628571 14.628571z m433.371428-14.628571h-71.314285c-9.142857 0-14.628571 7.314286-14.628572 14.628571v74.971429c0 9.142857 7.314286 14.628571 14.628572 14.628571h71.314285c9.142857 0 14.628571-7.314286 14.628572-14.628571v-74.971429c1.828571-9.142857-5.485714-14.628571-14.628572-14.628571z m0 157.257143h-71.314285c-9.142857 0-14.628571 7.314286-14.628572 14.628571v74.971429c0 9.142857 7.314286 14.628571 14.628572 14.628571h71.314285c9.142857 0 14.628571-7.314286 14.628572-14.628571V384c1.828571-9.142857-5.485714-14.628571-14.628572-14.628571z"  horiz-adv-x="1024" />

    
    <glyph glyph-name="-car" unicode="&#58999;" d="M857.6 502.857143h-67.657143s-16.457143 40.228571-36.571428 89.6-42.057143 78.628571-95.085715 78.628571H365.714286c-53.028571 0-74.971429-29.257143-95.085715-78.628571-20.114286-49.371429-36.571429-89.6-36.571428-89.6H164.571429c-5.485714 0-9.142857-1.828571-12.8-5.485714-3.657143-3.657143-5.485714-9.142857-5.485715-14.628572v-18.285714c0-10.971429 9.142857-18.285714 18.285715-18.285714h23.771428c-7.314286-16.457143-20.114286-182.857143-20.114286-184.685715v-131.657143c0-18.285714 14.628571-32.914286 32.914286-32.914285h51.2c9.142857 0 18.285714 3.657143 23.771429 9.142857 5.485714 5.485714 9.142857 14.628571 9.142857 23.771428v42.057143H731.428571v-42.057143c0-18.285714 14.628571-32.914286 32.914286-34.742857h51.2c9.142857 0 18.285714 3.657143 23.771429 9.142857 5.485714 5.485714 9.142857 14.628571 9.142857 23.771429v131.657143c0 1.828571-12.8 168.228571-20.114286 184.685714H859.428571c5.485714 0 9.142857 1.828571 12.8 5.485714 3.657143 3.657143 5.485714 9.142857 5.485715 12.8v16.457143c0 5.485714-1.828571 10.971429-5.485715 14.628572-3.657143 7.314286-9.142857 9.142857-14.628571 9.142857zM312.685714 235.885714c-20.114286 0-40.228571 10.971429-47.542857 31.085715-9.142857 18.285714-3.657143 42.057143 10.971429 56.685714 14.628571 14.628571 36.571429 20.114286 56.685714 10.971428 20.114286-7.314286 31.085714-27.428571 31.085714-47.542857-1.828571-27.428571-23.771429-51.2-51.2-51.2z m155.428572 10.971429H438.857143c-5.485714 0-10.971429 1.828571-14.628572 5.485714-3.657143 3.657143-5.485714 9.142857-5.485714 14.628572v14.628571c0 5.485714 1.828571 10.971429 5.485714 14.628571 3.657143 3.657143 9.142857 5.485714 14.628572 5.485715h146.285714c5.485714 0 10.971429-1.828571 14.628572-5.485715 3.657143-3.657143 5.485714-9.142857 5.485714-14.628571v-14.628571c0-10.971429-9.142857-20.114286-20.114286-20.114286h-117.028571z m-124.342857 197.485714c-27.428571 0-49.371429 18.285714-56.685715 43.885714 0 0 3.657143 60.342857 45.714286 118.857143h354.742857c42.057143-58.514286 45.714286-118.857143 45.714286-118.857143-5.485714-25.6-29.257143-43.885714-56.685714-43.885714H343.771429z m367.542857-208.457143c-23.771429 1.828571-42.057143 16.457143-47.542857 40.228572-5.485714 21.942857 5.485714 45.714286 25.6 56.685714 20.114286 10.971429 45.714286 7.314286 60.342857-9.142857 16.457143-16.457143 18.285714-42.057143 7.314285-62.171429-9.142857-16.457143-27.428571-25.6-45.714285-25.6z m0 0"  horiz-adv-x="1024" />

    
    <glyph glyph-name="-baojing" unicode="&#59000;" d="M215.771429 60.342857h590.628571V18.285714H215.771429v42.057143z m42.057142 42.057143h506.514286v-42.057143H257.828571v42.057143zM512 566.857143c-117.028571 0-210.285714-95.085714-210.285714-210.285714v-232.228572h106.057143V334.628571h42.057142v-210.285714h274.285715V356.571429C722.285714 471.771429 629.028571 566.857143 512 566.857143z m0 0M513.828571 634.514286H512c-9.142857 0-18.285714 7.314286-18.285714 18.285714V731.428571c0 10.971429 9.142857 18.285714 18.285714 18.285715h1.828571c9.142857 0 18.285714-7.314286 18.285715-18.285715v-78.628571c0-10.971429-9.142857-18.285714-18.285715-18.285714zM340.114286 559.542857c-9.142857-9.142857-20.114286-9.142857-27.428572-1.828571l-69.485714 69.485714c-7.314286 7.314286-7.314286 18.285714 0 25.6l1.828571 1.828571c7.314286 7.314286 18.285714 7.314286 25.6 0l69.485715-69.485714c5.485714-7.314286 5.485714-20.114286 0-25.6zM704 559.542857c9.142857-9.142857 20.114286-9.142857 27.428571-1.828571l69.485715 69.485714c7.314286 7.314286 7.314286 18.285714 0 25.6l-1.828572 1.828571c-7.314286 7.314286-18.285714 7.314286-25.6 0L704 585.142857c-7.314286-7.314286-7.314286-20.114286 0-25.6z"  horiz-adv-x="1024" />

    
    <glyph glyph-name="-bofang" unicode="&#59001;" d="M579.657143 389.485714z m0 0M512 749.714286C310.857143 749.714286 146.285714 585.142857 146.285714 384s164.571429-365.714286 365.714286-365.714286 365.714286 164.571429 365.714286 365.714286S713.142857 749.714286 512 749.714286z m149.942857-363.885715v-7.314285c0-1.828571 0-1.828571-1.828571-3.657143 0 0 0-1.828571-1.828572-1.828572 0-1.828571-1.828571-1.828571-1.828571-3.657142 0 0 0-1.828571-1.828572-1.828572l-3.657142-3.657143-1.828572-1.828571-197.485714-149.942857c-5.485714-3.657143-12.8-7.314286-18.285714-7.314286-9.142857 0-18.285714 3.657143-25.6 12.8-5.485714 7.314286-7.314286 16.457143-5.485715 23.771429V537.6v3.657143 3.657143 3.657143c0 1.828571 0 1.828571 1.828572 3.657142 0 0 0 1.828571 1.828571 1.828572 0 1.828571 1.828571 1.828571 1.828572 3.657143 0 0 0 1.828571 1.828571 1.828571l1.828571 1.828572 1.828572 1.828571 1.828571 1.828571s1.828571 1.828571 3.657143 1.828572c0 0 1.828571 0 1.828572 1.828571 1.828571 0 1.828571 0 3.657142 1.828572H438.857143c1.828571 0 1.828571 0 3.657143-1.828572 1.828571 0 1.828571 0 3.657143-1.828571 0 0 1.828571 0 1.828571-1.828572 1.828571 0 1.828571-1.828571 3.657143-1.828571l197.485714-149.942857 1.828572-1.828572 1.828571-1.828571s0-1.828571 1.828571-1.828571c0-1.828571 1.828571-1.828571 1.828572-3.657143 0 0 0-1.828571 1.828571-1.828572 0-1.828571 0-1.828571 1.828572-3.657143V387.657143c3.657143 1.828571 3.657143 0 1.828571-1.828572z m0 0"  horiz-adv-x="1024" />

    
    <glyph glyph-name="-dicMangment" unicode="&#59002;" d="M797.257143 192c5.485714 7.314286 9.142857 16.457143 12.8 23.771429V634.514286c0 25.6-20.114286 47.542857-47.542857 47.542857-10.971429-1.828571-23.771429-3.657143-42.057143-9.142857-54.857143-14.628571-135.314286-47.542857-173.714286-122.514286-5.485714-10.971429-10.971429-21.942857-14.628571-32.914286v-382.171428c0-25.6 20.114286-47.542857 47.542857-47.542857 25.6 9.142857 76.8 27.428571 126.171428 49.371428 12.8 5.485714 25.6 12.8 49.371429 25.6 18.285714 5.485714 31.085714 16.457143 42.057143 29.257143zM835.657143 627.2c0-1.828571 1.828571-5.485714 1.828571-9.142857v-418.742857c-3.657143-7.314286-7.314286-16.457143-12.8-23.771429-10.971429-12.8-23.771429-23.771429-40.228571-31.085714-23.771429-12.8-36.571429-20.114286-49.371429-25.6 12.8 0 53.028571 0 89.6 1.828571 12.8 0 25.6 3.657143 34.742857 10.971429 9.142857 7.314286 14.628571 16.457143 18.285715 29.257143V579.657143c0 23.771429-18.285714 43.885714-42.057143 47.542857zM301.714286 672.914286c-16.457143 5.485714-31.085714 7.314286-42.057143 9.142857-25.6 0-47.542857-20.114286-47.542857-47.542857v-418.742857c3.657143-9.142857 7.314286-16.457143 12.8-23.771429 10.971429-12.8 23.771429-23.771429 40.228571-31.085714 25.6-12.8 36.571429-20.114286 49.371429-25.6 49.371429-21.942857 100.571429-40.228571 126.171428-49.371429 25.6 0 47.542857 21.942857 47.542857 47.542857V515.657143c-3.657143 10.971429-7.314286 21.942857-14.628571 32.914286-36.571429 76.8-117.028571 109.714286-171.885714 124.342857zM201.142857 175.542857c-5.485714 7.314286-9.142857 16.457143-12.8 23.771429V618.057143c0 3.657143 0 5.485714 1.828572 9.142857C164.571429 623.542857 146.285714 603.428571 146.285714 579.657143v-418.742857c3.657143-10.971429 9.142857-20.114286 18.285715-29.257143 9.142857-7.314286 21.942857-10.971429 34.742857-10.971429 38.4-1.828571 76.8-1.828571 89.6-1.828571-12.8 5.485714-25.6 12.8-49.371429 25.6-14.628571 7.314286-27.428571 18.285714-38.4 31.085714z"  horiz-adv-x="1024" />

    
    <glyph glyph-name="-dibiao" unicode="&#59003;" d="M524.8 148.114286h-20.114286c-12.8 29.257143-20.114286 62.171429-38.4 85.942857-27.428571 34.742857-60.342857 65.828571-93.257143 95.085714-45.714286 40.228571-80.457143 84.114286-91.428571 146.285714C256 621.714286 362.057143 747.885714 510.171429 749.714286c166.4 3.657143 259.657143-138.971429 234.057142-281.6-9.142857-49.371429-36.571429-87.771429-71.314285-120.685715-20.114286-18.285714-42.057143-36.571429-60.342857-54.857142-56.685714-54.857143-65.828571-69.485714-87.771429-144.457143zM548.571429 54.857143c0-20.114286-16.457143-36.571429-36.571429-36.571429s-36.571429 16.457143-38.4 36.571429c0 20.114286 14.628571 36.571429 34.742857 38.4 9.142857 0 20.114286-3.657143 27.428572-10.971429 9.142857-7.314286 12.8-16.457143 12.8-27.428571z m49.371428 460.8"  horiz-adv-x="1024" />

    
    <glyph glyph-name="-diannao" unicode="&#59004;" d="M841.142857 749.714286H182.857143c-20.114286 0-36.571429-16.457143-36.571429-36.571429v-402.285714h731.428572V713.142857c0 20.114286-16.457143 36.571429-36.571429 36.571429zM182.857143 274.285714H146.285714v-73.142857c0-20.114286 16.457143-36.571429 36.571429-36.571428h292.571428v-73.142858h-109.714285v-73.142857h292.571428v73.142857h-109.714285v73.142858h292.571428c20.114286 0 36.571429 16.457143 36.571429 36.571428v73.142857H182.857143z"  horiz-adv-x="1024" />

    
    <glyph glyph-name="-zanwu" unicode="&#59005;" d="M590.628571 42.057143s-3.657143 3.657143-7.314285 5.485714c-9.142857 7.314286-16.457143 12.8-21.942857 18.285714l-14.628572 14.628572c-1.828571 3.657143-7.314286 9.142857-12.8 16.457143-1.828571 3.657143-5.485714 7.314286-7.314286 10.971428-5.485714 9.142857-7.314286 14.628571-10.971428 21.942857-1.828571 5.485714-5.485714 10.971429-7.314286 18.285715-1.828571 7.314286-5.485714 20.114286-7.314286 34.742857-1.828571 9.142857-3.657143 27.428571-1.828571 42.057143 0 3.657143 0 12.8 3.657143 23.771428 1.828571 12.8 3.657143 18.285714 9.142857 34.742857 3.657143 9.142857 7.314286 16.457143 12.8 29.257143 0 7.314286 0 18.285714 1.828571 25.6 0 9.142857 5.485714 18.285714 10.971429 25.6 7.314286 5.485714 14.628571 12.8 21.942857 18.285715 3.657143 3.657143 7.314286 9.142857 10.971429 14.628571 3.657143 5.485714 5.485714 12.8 7.314285 18.285714 1.828571 7.314286 5.485714 14.628571 7.314286 23.771429 5.485714 1.828571 9.142857 3.657143 12.8 7.314286 3.657143 3.657143 7.314286 9.142857 10.971429 14.628571 3.657143 7.314286 5.485714 16.457143 5.485714 23.771429v20.114285c0 3.657143-1.828571 9.142857-3.657143 12.8-1.828571 3.657143-3.657143 7.314286-7.314286 9.142857 0 20.114286-1.828571 40.228571-3.657142 58.514286s-5.485714 36.571429-10.971429 53.028572c-5.485714 18.285714-14.628571 36.571429-25.6 51.2-5.485714 7.314286-12.8 14.628571-20.114286 20.114285-9.142857 7.314286-20.114286 12.8-31.085714 18.285715-10.971429 5.485714-23.771429 9.142857-36.571429 12.8-18.285714 7.314286-31.085714 9.142857-45.714285 9.142857-10.971429 0-21.942857 0-32.914286-1.828572-10.971429-1.828571-23.771429-5.485714-32.914286-9.142857-10.971429-5.485714-23.771429-12.8-32.914285-20.114286-10.971429-9.142857-21.942857-20.114286-29.257143-32.914285-9.142857-14.628571-16.457143-31.085714-21.942857-47.542857-3.657143-16.457143-7.314286-32.914286-9.142858-51.2-1.828571-18.285714-3.657143-36.571429-3.657142-54.857143-3.657143-3.657143-7.314286-9.142857-9.142858-14.628572-1.828571-5.485714-3.657143-10.971429-3.657142-18.285714s0-14.628571 3.657142-21.942857c1.828571-7.314286 3.657143-12.8 7.314286-18.285714 1.828571-3.657143 5.485714-7.314286 9.142857-10.971429 3.657143-1.828571 5.485714-3.657143 9.142857-5.485714 1.828571-7.314286 3.657143-16.457143 7.314286-23.771429 1.828571-5.485714 5.485714-12.8 7.314286-18.285714 1.828571-5.485714 5.485714-10.971429 9.142857-14.628572 7.314286-7.314286 14.628571-12.8 21.942857-20.114285 7.314286-7.314286 10.971429-16.457143 10.971429-27.428572v-21.942857c0-5.485714-1.828571-12.8-3.657143-18.285714-1.828571-7.314286-5.485714-12.8-10.971429-18.285714-7.314286-7.314286-14.628571-12.8-21.942857-18.285715-12.8-9.142857-27.428571-14.628571-42.057143-18.285714-16.457143-3.657143-31.085714-9.142857-45.714285-14.628571-14.628571-5.485714-27.428571-12.8-38.4-21.942858-10.971429-10.971429-18.285714-25.6-20.114286-42.057142-3.657143-25.6-5.485714-51.2-3.657143-76.8 0-12.8 3.657143-25.6 10.971429-36.571429 5.485714-3.657143 12.8-5.485714 20.114285-7.314286 10.971429-1.828571 23.771429-5.485714 38.4-7.314285 14.628571-1.828571 32.914286-5.485714 51.2-7.314286 18.285714-1.828571 36.571429-3.657143 56.685715-5.485714 18.285714-1.828571 36.571429-3.657143 54.857142-3.657143 18.285714-1.828571 32.914286-1.828571 45.714286-1.828572s29.257143 0 47.542857 1.828572 38.4 1.828571 56.685715 3.657143c20.114286 1.828571 53.028571 5.485714 71.314285 7.314285-1.828571 0-1.828571 0-1.828571 1.828572-5.485714 3.657143-10.971429 5.485714-14.628572 9.142857zM705.828571 378.514286c-91.428571 0-164.571429-73.142857-164.571428-164.571429s73.142857-164.571429 164.571428-164.571428 164.571429 73.142857 164.571429 164.571428c1.828571 91.428571-73.142857 164.571429-164.571429 164.571429z m84.114286-190.171429H621.714286c-25.6 1.828571-25.6 25.6-25.6 25.6s0 23.771429 25.6 25.6h168.228571c25.6-1.828571 25.6-25.6 25.6-25.6s0-23.771429-25.6-25.6z"  horiz-adv-x="1024" />

    
    <glyph glyph-name="-decice" unicode="&#59008;" d="M623.542857 437.028571c-9.142857 0-16.457143 3.657143-23.771428 9.142858-5.485714 5.485714-9.142857 14.628571-9.142858 23.771428-1.828571 42.057143-36.571429 74.971429-78.628571 74.971429s-76.8-32.914286-78.628571-74.971429c0-10.971429-5.485714-21.942857-16.457143-29.257143-10.971429-5.485714-23.771429-5.485714-32.914286 0-10.971429 5.485714-16.457143 16.457143-16.457143 29.257143 0 80.457143 64 144.457143 144.457143 144.457143s144.457143-64 144.457143-144.457143c0-18.285714-14.628571-32.914286-32.914286-32.914286z m100.571429 0c-9.142857 0-16.457143 3.657143-23.771429 9.142858-5.485714 5.485714-9.142857 14.628571-9.142857 23.771428 0 98.742857-80.457143 181.028571-181.028571 181.028572-98.742857 0-181.028571-80.457143-181.028572-181.028572 0-18.285714-14.628571-31.085714-32.914286-31.085714s-32.914286 14.628571-32.914285 31.085714c3.657143 135.314286 113.371429 243.2 246.857143 243.2 135.314286 0 245.028571-107.885714 246.857142-243.2 0-9.142857-3.657143-16.457143-9.142857-23.771428-7.314286-5.485714-14.628571-9.142857-23.771428-9.142858z m78.628571-113.371428h-256v113.371428c0 12.8-5.485714 23.771429-16.457143 29.257143-10.971429 5.485714-23.771429 5.485714-34.742857 0-10.971429-5.485714-16.457143-18.285714-16.457143-29.257143v-113.371428h-256c-23.771429 0-42.057143-18.285714-42.057143-42.057143v-184.685714c0-21.942857 18.285714-42.057143 42.057143-42.057143h579.657143c23.771429 0 42.057143 18.285714 42.057143 42.057143V281.6c-1.828571 23.771429-20.114286 42.057143-42.057143 42.057143z m-519.314286-168.228572c-12.8 0-25.6 7.314286-31.085714 20.114286-5.485714 12.8-1.828571 27.428571 7.314286 36.571429s23.771429 12.8 36.571428 7.314285c14.628571-5.485714 21.942857-21.942857 20.114286-36.571428-3.657143-16.457143-18.285714-27.428571-32.914286-27.428572z m100.571429 0c-12.8 0-25.6 7.314286-31.085714 20.114286-5.485714 12.8-1.828571 27.428571 7.314285 36.571429s23.771429 12.8 36.571429 7.314285c14.628571-5.485714 21.942857-21.942857 20.114286-36.571428-5.485714-16.457143-18.285714-27.428571-32.914286-27.428572z m0 0"  horiz-adv-x="1024" />

    
    <glyph glyph-name="-housetype" unicode="&#59009;" d="M740.571429 749.714286h-457.142858c-38.4 0-65.828571-21.942857-69.485714-53.028572v-618.057143c0-34.742857 29.257143-60.342857 69.485714-60.342857h457.142858c38.4 0 69.485714 25.6 69.485714 54.857143V694.857143c0 29.257143-31.085714 54.857143-69.485714 54.857143z m23.771428-652.8c0-25.6-27.428571-32.914286-40.228571-32.914286H455.314286l199.314285 25.6c16.457143 1.828571 40.228571 12.8 40.228572 34.742857V647.314286c0 25.6-21.942857 31.085714-40.228572 34.742857l-210.285714 25.6h279.771429c12.8 0 40.228571-7.314286 40.228571-32.914286v-577.828571zM559.542857 384c0 18.285714 14.628571 32.914286 32.914286 32.914286s32.914286-14.628571 32.914286-32.914286-14.628571-32.914286-32.914286-32.914286-32.914286 14.628571-32.914286 32.914286z m0 0"  horiz-adv-x="1024" />

    
    <glyph glyph-name="-deviceRecord" unicode="&#59010;" d="M903.314286 334.628571C872.228571 365.714286 830.171429 384 786.285714 384c-43.885714 0-85.942857-16.457143-117.028571-47.542857-31.085714-31.085714-47.542857-73.142857-47.542857-117.028572 0-43.885714 16.457143-85.942857 47.542857-117.028571 31.085714-31.085714 73.142857-47.542857 117.028571-47.542857 43.885714 0 85.942857 16.457143 117.028572 47.542857 64 64 64 168.228571 0 232.228571z m-38.4-175.542857c-1.828571-3.657143-5.485714-5.485714-9.142857-7.314285h-3.657143c-1.828571 0-5.485714 0-7.314286 1.828571l-56.685714 34.742857c-1.828571 1.828571-3.657143 1.828571-5.485715 3.657143-7.314286 3.657143-10.971429 9.142857-10.971428 12.8v95.085714c0 9.142857 7.314286 14.628571 14.628571 14.628572 9.142857 0 14.628571-7.314286 14.628572-14.628572v-87.771428l54.857143-32.914286c9.142857-3.657143 12.8-12.8 9.142857-20.114286z m0 0M510.171429 614.4c-80.457143 0-144.457143-64-144.457143-144.457143 0-10.971429 5.485714-21.942857 16.457143-29.257143 10.971429-5.485714 23.771429-5.485714 32.914285 0 10.971429 5.485714 16.457143 16.457143 16.457143 29.257143 1.828571 42.057143 36.571429 74.971429 78.628572 74.971429s76.8-32.914286 78.628571-74.971429c0-9.142857 3.657143-16.457143 9.142857-23.771428 5.485714-5.485714 14.628571-9.142857 23.771429-9.142858 18.285714 0 32.914286 14.628571 32.914285 32.914286 1.828571 80.457143-64 144.457143-144.457142 144.457143zM298.057143 438.857143c18.285714 0 32.914286 14.628571 32.914286 31.085714 0 98.742857 80.457143 181.028571 181.028571 181.028572 98.742857 0 181.028571-80.457143 181.028571-181.028572 0-9.142857 3.657143-16.457143 9.142858-23.771428 5.485714-5.485714 14.628571-9.142857 23.771428-9.142858s16.457143 3.657143 23.771429 9.142858c5.485714 5.485714 9.142857 14.628571 9.142857 23.771428-3.657143 135.314286-113.371429 243.2-248.685714 243.2s-245.028571-107.885714-246.857143-243.2c1.828571-18.285714 16.457143-31.085714 34.742857-31.085714zM643.657143 76.8C605.257143 115.2 585.142857 166.4 585.142857 219.428571c0 36.571429 10.971429 73.142857 29.257143 104.228572h-69.485714v113.371428c0 12.8-5.485714 23.771429-16.457143 29.257143-10.971429 5.485714-23.771429 5.485714-34.742857 0-10.971429-5.485714-16.457143-18.285714-16.457143-29.257143v-113.371428h-256c-23.771429 0-42.057143-18.285714-42.057143-42.057143v-184.685714c0-21.942857 18.285714-42.057143 42.057143-42.057143h448c-7.314286 7.314286-16.457143 14.628571-25.6 21.942857z m-329.142857 106.057143c-3.657143-14.628571-16.457143-27.428571-32.914286-27.428572-12.8 0-25.6 7.314286-31.085714 20.114286-5.485714 12.8-1.828571 27.428571 7.314285 36.571429s23.771429 12.8 36.571429 7.314285c14.628571-5.485714 23.771429-21.942857 20.114286-36.571428z m100.571428 0c-3.657143-14.628571-16.457143-27.428571-32.914285-27.428572-12.8 0-25.6 7.314286-31.085715 20.114286-5.485714 12.8-1.828571 27.428571 7.314286 36.571429s23.771429 12.8 36.571429 7.314285c14.628571-5.485714 23.771429-21.942857 20.114285-36.571428z"  horiz-adv-x="1024" />

    
    <glyph glyph-name="-house" unicode="&#59011;" d="M853.942857 433.371429L577.828571 722.285714C561.371429 740.571429 537.6 749.714286 512 749.714286c-23.771429 0-47.542857-9.142857-65.828571-27.428572L170.057143 433.371429c-29.257143-29.257143-25.6-54.857143-20.114286-65.828572 7.314286-18.285714 27.428571-29.257143 47.542857-29.257143l36.571429-7.314285v-226.742858c0-23.771429 9.142857-47.542857 27.428571-64 16.457143-16.457143 40.228571-25.6 64-23.771428h117.028572v237.714286c0 25.6-3.657143 43.885714 21.942857 43.885714h95.085714c25.6 0 20.114286-18.285714 20.114286-43.885714V18.285714h117.028571c23.771429-1.828571 47.542857 7.314286 64 23.771429 16.457143 16.457143 27.428571 38.4 27.428572 62.171428V332.8l36.571428 7.314286c20.114286-1.828571 40.228571 9.142857 47.542857 29.257143 7.314286 9.142857 10.971429 34.742857-18.285714 64z m0 0"  horiz-adv-x="1024" />

    
    <glyph glyph-name="-homeperson" unicode="&#59012;" d="M590.628571 42.057143s-3.657143 3.657143-7.314285 5.485714c-9.142857 7.314286-16.457143 12.8-21.942857 18.285714l-14.628572 14.628572c-1.828571 3.657143-7.314286 9.142857-12.8 16.457143-1.828571 3.657143-5.485714 7.314286-7.314286 10.971428-5.485714 9.142857-7.314286 14.628571-10.971428 21.942857-1.828571 5.485714-5.485714 10.971429-7.314286 18.285715-1.828571 7.314286-5.485714 20.114286-7.314286 34.742857-1.828571 9.142857-3.657143 27.428571-1.828571 42.057143 0 3.657143 0 12.8 3.657143 23.771428 1.828571 12.8 3.657143 18.285714 9.142857 34.742857 3.657143 9.142857 7.314286 16.457143 12.8 29.257143 0 7.314286 0 18.285714 1.828571 25.6 0 9.142857 5.485714 18.285714 10.971429 25.6 7.314286 5.485714 14.628571 12.8 21.942857 18.285715 3.657143 3.657143 7.314286 9.142857 10.971429 14.628571 3.657143 5.485714 5.485714 12.8 7.314285 18.285714 1.828571 7.314286 5.485714 14.628571 7.314286 23.771429 5.485714 1.828571 9.142857 3.657143 12.8 7.314286 3.657143 3.657143 7.314286 9.142857 10.971429 14.628571 3.657143 7.314286 5.485714 16.457143 5.485714 23.771429v20.114285c0 3.657143-1.828571 9.142857-3.657143 12.8-1.828571 3.657143-3.657143 7.314286-7.314286 9.142857 0 20.114286-1.828571 40.228571-3.657142 58.514286s-5.485714 36.571429-10.971429 53.028572c-5.485714 18.285714-14.628571 36.571429-25.6 51.2-5.485714 7.314286-12.8 14.628571-20.114286 20.114285-9.142857 7.314286-20.114286 12.8-31.085714 18.285715-10.971429 5.485714-23.771429 9.142857-36.571429 12.8-18.285714 7.314286-31.085714 9.142857-45.714285 9.142857-10.971429 0-21.942857 0-32.914286-1.828572-10.971429-1.828571-23.771429-5.485714-32.914286-9.142857-10.971429-5.485714-23.771429-12.8-32.914285-20.114286-10.971429-9.142857-21.942857-20.114286-29.257143-32.914285-9.142857-14.628571-16.457143-31.085714-21.942857-47.542857-3.657143-16.457143-7.314286-32.914286-9.142858-51.2-1.828571-18.285714-3.657143-36.571429-3.657142-54.857143-3.657143-3.657143-7.314286-9.142857-9.142858-14.628572-1.828571-5.485714-3.657143-10.971429-3.657142-18.285714s0-14.628571 3.657142-21.942857c1.828571-7.314286 3.657143-12.8 7.314286-18.285714 1.828571-3.657143 5.485714-7.314286 9.142857-10.971429 3.657143-1.828571 5.485714-3.657143 9.142857-5.485714 1.828571-7.314286 3.657143-16.457143 7.314286-23.771429 1.828571-5.485714 5.485714-12.8 7.314286-18.285714 1.828571-5.485714 5.485714-10.971429 9.142857-14.628572 7.314286-7.314286 14.628571-12.8 21.942857-20.114285 7.314286-7.314286 10.971429-16.457143 10.971429-27.428572v-21.942857c0-5.485714-1.828571-12.8-3.657143-18.285714-1.828571-7.314286-5.485714-12.8-10.971429-18.285714-7.314286-7.314286-14.628571-12.8-21.942857-18.285715-12.8-9.142857-27.428571-14.628571-42.057143-18.285714-16.457143-3.657143-31.085714-9.142857-45.714285-14.628571-14.628571-5.485714-27.428571-12.8-38.4-21.942858-10.971429-10.971429-18.285714-25.6-20.114286-42.057142-3.657143-25.6-5.485714-51.2-3.657143-76.8 0-12.8 3.657143-25.6 10.971429-36.571429 5.485714-3.657143 12.8-5.485714 20.114285-7.314286 10.971429-1.828571 23.771429-5.485714 38.4-7.314285 14.628571-1.828571 32.914286-5.485714 51.2-7.314286 18.285714-1.828571 36.571429-3.657143 56.685715-5.485714 18.285714-1.828571 36.571429-3.657143 54.857142-3.657143 18.285714-1.828571 32.914286-1.828571 45.714286-1.828572s29.257143 0 47.542857 1.828572 38.4 1.828571 56.685715 3.657143c20.114286 1.828571 53.028571 5.485714 71.314285 7.314285-1.828571 0-1.828571 0-1.828571 1.828572-5.485714 3.657143-10.971429 5.485714-14.628572 9.142857zM705.828571 378.514286c-91.428571 0-164.571429-73.142857-164.571428-164.571429s73.142857-164.571429 164.571428-164.571428 164.571429 73.142857 164.571429 164.571428c1.828571 91.428571-73.142857 164.571429-164.571429 164.571429z m115.2-164.571429c-1.828571-5.485714-7.314286-9.142857-14.628571-9.142857l-10.971429-1.828571v-67.657143c0-7.314286-3.657143-14.628571-9.142857-18.285715-5.485714-5.485714-12.8-7.314286-20.114285-7.314285H731.428571v71.314285c0 7.314286 1.828571 12.8-5.485714 12.8h-29.257143c-7.314286 0-7.314286-5.485714-7.314285-12.8V109.714286h-34.742858c-7.314286 0-14.628571 1.828571-20.114285 7.314285-5.485714 5.485714-7.314286 10.971429-7.314286 18.285715v67.657143l-10.971429 1.828571c-5.485714 0-10.971429 3.657143-14.628571 9.142857-1.828571 3.657143-1.828571 10.971429 5.485714 20.114286l84.114286 85.942857c5.485714 5.485714 12.8 9.142857 20.114286 9.142857 7.314286 0 14.628571-3.657143 20.114285-9.142857l82.285715-85.942857c10.971429-9.142857 9.142857-16.457143 7.314285-20.114286z"  horiz-adv-x="1024" />

    
    <glyph glyph-name="-menuManagment" unicode="&#59013;" d="M146.285714 581.485714c0-27.428571 21.942857-49.371429 49.371429-49.371428 27.428571 0 49.371429 21.942857 49.371428 49.371428 0 27.428571-21.942857 49.371429-49.371428 49.371429-27.428571 0-49.371429-21.942857-49.371429-49.371429z m254.171429-43.885714h431.542857c23.771429 0 43.885714 20.114286 43.885714 43.885714 0 25.6-20.114286 43.885714-43.885714 43.885715H400.457143c-23.771429 0-43.885714-20.114286-43.885714-43.885715 0-25.6 20.114286-43.885714 43.885714-43.885714zM146.285714 365.714286c0-27.428571 21.942857-49.371429 49.371429-49.371429 27.428571 0 49.371429 21.942857 49.371428 49.371429 0 27.428571-21.942857 49.371429-49.371428 49.371428C168.228571 416.914286 146.285714 393.142857 146.285714 365.714286z m687.542857 43.885714H400.457143c-23.771429 0-43.885714-20.114286-43.885714-43.885714 0-25.6 20.114286-43.885714 43.885714-43.885715h431.542857c23.771429 0 43.885714 20.114286 43.885714 43.885715 1.828571 23.771429-18.285714 43.885714-42.057143 43.885714zM146.285714 151.771429c0-27.428571 21.942857-49.371429 49.371429-49.371429 27.428571 0 49.371429 21.942857 49.371428 49.371429 0 27.428571-21.942857 49.371429-49.371428 49.371428C168.228571 201.142857 146.285714 179.2 146.285714 151.771429z m687.542857 43.885714H400.457143c-23.771429 0-43.885714-20.114286-43.885714-43.885714s20.114286-43.885714 43.885714-43.885715h431.542857c23.771429 0 43.885714 20.114286 43.885714 43.885715s-18.285714 43.885714-42.057143 43.885714z m0 0"  horiz-adv-x="1024" />

    
    <glyph glyph-name="-home" unicode="&#59014;" d="M597.942857 18.285714l-27.428571 21.942857c-36.571429 38.4-58.514286 89.6-58.514286 142.628572 0 53.028571 20.114286 104.228571 58.514286 142.628571C608.914286 363.885714 658.285714 384 713.142857 384c45.714286 0 89.6-14.628571 126.171429-43.885714 14.628571 3.657143 29.257143 12.8 34.742857 27.428571 5.485714 10.971429 9.142857 36.571429-20.114286 65.828572L577.828571 722.285714c-18.285714 18.285714-40.228571 27.428571-65.828571 27.428572-23.771429 0-47.542857-9.142857-65.828571-27.428572L170.057143 433.371429c-29.257143-29.257143-25.6-54.857143-20.114286-65.828572 7.314286-18.285714 27.428571-29.257143 47.542857-29.257143l36.571429-7.314285v-226.742858c0-23.771429 9.142857-47.542857 27.428571-64 16.457143-16.457143 40.228571-25.6 64-23.771428H597.942857zM830.171429 298.057143C799.085714 329.142857 757.028571 347.428571 713.142857 347.428571c-43.885714 0-85.942857-16.457143-117.028571-47.542857-31.085714-31.085714-47.542857-73.142857-47.542857-117.028571 0-43.885714 16.457143-85.942857 47.542857-117.028572 31.085714-31.085714 73.142857-47.542857 117.028571-47.542857s85.942857 16.457143 117.028572 47.542857c64 64 64 168.228571 0 232.228572z m-27.428572-215.771429c0-1.828571-1.828571-5.485714-1.828571-7.314285-1.828571-1.828571-3.657143-3.657143-5.485715-3.657143-3.657143-1.828571-9.142857-1.828571-12.8-3.657143-5.485714-1.828571-10.971429-1.828571-16.457142-1.828572-5.485714 0-12.8-1.828571-18.285715-1.828571-5.485714 0-12.8-1.828571-18.285714-1.828571h-29.257143c-5.485714 0-10.971429 0-16.457143 1.828571-5.485714 0-10.971429 1.828571-18.285714 1.828571-5.485714 0-10.971429 1.828571-16.457143 1.828572-5.485714 0-9.142857 1.828571-12.8 1.828571-1.828571 0-3.657143 1.828571-5.485714 1.828572-1.828571 3.657143-3.657143 7.314286-3.657143 10.971428 0 7.314286 0 16.457143 1.828571 23.771429 0 5.485714 1.828571 9.142857 5.485715 12.8 3.657143 3.657143 7.314286 5.485714 12.8 7.314286 5.485714 1.828571 9.142857 3.657143 14.628571 5.485714 5.485714 1.828571 9.142857 3.657143 12.8 5.485714 1.828571 1.828571 5.485714 3.657143 7.314286 5.485714 1.828571 1.828571 1.828571 3.657143 3.657143 5.485715 0 1.828571 1.828571 3.657143 1.828571 5.485714v7.314286c0 3.657143-1.828571 5.485714-3.657143 9.142857-1.828571 1.828571-3.657143 3.657143-7.314285 5.485714-1.828571 1.828571-1.828571 3.657143-3.657143 3.657143 0 1.828571-1.828571 3.657143-1.828572 5.485714 0 1.828571-1.828571 5.485714-1.828571 7.314286-1.828571 0-1.828571 0-3.657143 1.828571l-3.657143 3.657143c-1.828571 3.657143-3.657143 5.485714-3.657143 9.142857 0 1.828571-1.828571 5.485714-1.828571 7.314286 0 1.828571 0 3.657143 1.828571 5.485714 0 1.828571 1.828571 3.657143 3.657143 5.485715v18.285714c0 5.485714 1.828571 10.971429 3.657143 16.457143 1.828571 5.485714 3.657143 10.971429 7.314286 14.628571 1.828571 3.657143 5.485714 7.314286 9.142857 10.971429 3.657143 1.828571 7.314286 5.485714 10.971428 5.485714 3.657143 1.828571 7.314286 1.828571 10.971429 3.657143h10.971429c3.657143 0 9.142857 0 12.8-1.828571 3.657143-1.828571 7.314286-1.828571 10.971428-3.657143 3.657143-1.828571 7.314286-3.657143 9.142857-5.485715 1.828571-1.828571 5.485714-3.657143 7.314286-7.314285 3.657143-5.485714 7.314286-10.971429 9.142857-16.457143 1.828571-5.485714 3.657143-10.971429 3.657143-16.457143 0-5.485714 1.828571-12.8 1.828571-18.285714 1.828571 0 1.828571-1.828571 1.828572-3.657143s1.828571-1.828571 1.828571-3.657143v-5.485714c0-1.828571 0-5.485714-1.828571-7.314286 0-1.828571-1.828571-3.657143-3.657143-3.657143-1.828571-1.828571-1.828571-1.828571-3.657143-1.828571 0-1.828571-1.828571-5.485714-1.828571-7.314286 0-1.828571-1.828571-3.657143-1.828572-5.485714 0-1.828571-1.828571-3.657143-3.657143-3.657143-1.828571-1.828571-3.657143-3.657143-7.314285-5.485714-1.828571-1.828571-3.657143-5.485714-3.657143-7.314286v-7.314286c0-1.828571 0-5.485714 1.828571-7.314286 1.828571-1.828571 3.657143-5.485714 5.485715-7.314285 3.657143-1.828571 5.485714-3.657143 9.142857-5.485715 3.657143-1.828571 7.314286-3.657143 10.971428-3.657142 3.657143-1.828571 9.142857-1.828571 12.8-3.657143l10.971429-5.485715c3.657143-1.828571 5.485714-5.485714 7.314286-9.142857 0-3.657143 1.828571-5.485714 1.828571-9.142857v-10.971428c-3.657143-10.971429-3.657143-14.628571-3.657143-18.285715z"  horiz-adv-x="1024" />

    
    <glyph glyph-name="-loukonguanli" unicode="&#59015;" d="M778.971429 592.457143H658.285714c-36.571429 0-38.4-7.314286-38.4 38.4v80.457143c0 21.942857-16.457143 38.4-38.4 38.4H245.028571c-21.942857 0-38.4-16.457143-38.4-38.4v-654.628572c0-21.942857 16.457143-38.4 38.4-38.4h535.771429c21.942857 0 38.4 16.457143 38.4 38.4V554.057143c-1.828571 21.942857-18.285714 38.4-40.228571 38.4z m-453.485715 38.4h173.714286c9.142857 0 14.628571-7.314286 14.628571-14.628572v-74.971428c0-9.142857-7.314286-14.628571-14.628571-14.628572h-173.714286c-9.142857 0-14.628571 7.314286-14.628571 14.628572v74.971428c0 7.314286 7.314286 14.628571 14.628571 14.628572z m0-157.257143h173.714286c9.142857 0 14.628571-7.314286 14.628571-14.628571V384c0-9.142857-7.314286-14.628571-14.628571-14.628571h-173.714286c-9.142857 0-14.628571 7.314286-14.628571 14.628571v74.971429c0 7.314286 7.314286 14.628571 14.628571 14.628571zM310.857143 226.742857v74.971429c0 9.142857 7.314286 14.628571 14.628571 14.628571h173.714286c9.142857 0 14.628571-7.314286 14.628571-14.628571v-74.971429c0-9.142857-7.314286-14.628571-14.628571-14.628571h-173.714286c-7.314286 0-14.628571 5.485714-14.628571 14.628571z m433.371428-14.628571h-71.314285c-9.142857 0-14.628571 7.314286-14.628572 14.628571v74.971429c0 9.142857 7.314286 14.628571 14.628572 14.628571h71.314285c9.142857 0 14.628571-7.314286 14.628572-14.628571v-74.971429c1.828571-9.142857-5.485714-14.628571-14.628572-14.628571z m0 157.257143h-71.314285c-9.142857 0-14.628571 7.314286-14.628572 14.628571v74.971429c0 9.142857 7.314286 14.628571 14.628572 14.628571h71.314285c9.142857 0 14.628571-7.314286 14.628572-14.628571V384c1.828571-9.142857-5.485714-14.628571-14.628572-14.628571z"  horiz-adv-x="1024" />

    
    <glyph glyph-name="-name" unicode="&#59016;" d="M672.914286 385.828571c-40.228571-38.4-95.085714-60.342857-155.428572-60.342857s-117.028571 23.771429-157.257143 62.171429c-95.085714-25.6-155.428571-115.2-155.428571-221.257143v-54.857143c0-126.171429 616.228571-126.171429 616.228571 0v54.857143c0 104.228571-56.685714 192-148.114285 219.428571z m-155.428572-21.942857c106.057143 0 192 85.942857 192 192S623.542857 749.714286 517.485714 749.714286s-192-85.942857-192-192 85.942857-193.828571 192-193.828572z m0 0"  horiz-adv-x="1024" />

    
    <glyph glyph-name="-log" unicode="&#59017;" d="M517.485714 107.885714c-1.828571-1.828571-1.828571-5.485714-1.828571-5.485714l-16.457143-69.485714s-1.828571-7.314286 1.828571-10.971429c3.657143-3.657143 10.971429-3.657143 10.971429-3.657143l69.485714 16.457143s3.657143 1.828571 7.314286 1.828572c1.828571 1.828571 5.485714 3.657143 5.485714 3.657142l241.371429 241.371429s5.485714 5.485714 5.485714 9.142857c0 5.485714-3.657143 10.971429-3.657143 10.971429L786.285714 352.914286s-3.657143 3.657143-9.142857 3.657143-10.971429-5.485714-10.971428-5.485715L521.142857 111.542857l-3.657143-3.657143z m0 0M453.485714 29.257143l23.771429 95.085714s1.828571 5.485714 3.657143 7.314286c1.828571 3.657143 5.485714 7.314286 5.485714 7.314286l290.742857 290.742857s5.485714 5.485714 7.314286 10.971428c1.828571 5.485714 1.828571 14.628571 1.828571 14.628572V694.857143c0 31.085714-23.771429 54.857143-54.857143 54.857143H241.371429c-31.085714 0-54.857143-23.771429-54.857143-54.857143v-621.714286c0-31.085714 23.771429-54.857143 54.857143-54.857143H438.857143s5.485714 0 10.971428 3.657143c3.657143 3.657143 3.657143 7.314286 3.657143 7.314286zM327.314286 603.428571h320c14.628571 0 25.6-10.971429 25.6-25.6 0-14.628571-10.971429-25.6-25.6-25.6H327.314286c-14.628571 0-25.6 10.971429-25.6 25.6-1.828571 12.8 10.971429 25.6 25.6 25.6z m0-160.914285h192c14.628571 0 25.6-10.971429 25.6-25.6s-10.971429-25.6-25.6-25.6H327.314286c-14.628571 0-25.6 10.971429-25.6 25.6s10.971429 25.6 25.6 25.6z m-27.428572-188.342857c0 14.628571 10.971429 25.6 25.6 25.6h78.628572c14.628571 0 25.6-10.971429 25.6-25.6 0-14.628571-10.971429-25.6-25.6-25.6h-78.628572c-12.8 0-25.6 10.971429-25.6 25.6z m0 0"  horiz-adv-x="1024" />

    
    <glyph glyph-name="-paixu" unicode="&#59018;" d="M437.028571 718.628571c0 1.828571-1.828571 1.828571-1.828571 3.657143l-3.657143 3.657143c-7.314286 9.142857-20.114286 12.8-31.085714 12.8-12.8 0-25.6-5.485714-32.914286-14.628571L160.914286 517.485714c-9.142857-9.142857-12.8-20.114286-12.8-31.085714s5.485714-23.771429 12.8-31.085714c9.142857-9.142857 20.114286-12.8 31.085714-12.8 10.971429 0 23.771429 3.657143 31.085714 12.8l129.828572 129.828571v-532.114286c0-25.6 20.114286-45.714286 45.714285-45.714285s45.714286 20.114286 45.714286 45.714285v640c1.828571 7.314286-1.828571 16.457143-7.314286 25.6zM875.885714 259.657143c0 12.8-5.485714 23.771429-12.8 31.085714-18.285714 18.285714-45.714286 18.285714-64 0l-129.828571-129.828571V693.028571c0 25.6-20.114286 45.714286-45.714286 45.714286s-45.714286-20.114286-45.714286-45.714286v-640c0-9.142857 1.828571-18.285714 7.314286-27.428571 0-1.828571 1.828571-1.828571 1.828572-3.657143l3.657142-3.657143c7.314286-9.142857 20.114286-12.8 31.085715-12.8 12.8 0 25.6 5.485714 32.914285 14.628572L859.428571 224.914286c10.971429 10.971429 16.457143 21.942857 16.457143 34.742857z"  horiz-adv-x="1024" />

    
    <glyph glyph-name="-monitor" unicode="&#59019;" d="M237.714286 298.057143V384c0 3.657143-1.828571 5.485714-5.485715 5.485714L171.885714 402.285714c-3.657143 0-7.314286-1.828571-7.314285-5.485714v-299.885714c0-3.657143 3.657143-5.485714 9.142857-5.485715l60.342857 21.942858c1.828571 1.828571 3.657143 3.657143 3.657143 5.485714v98.742857c0 3.657143 3.657143 5.485714 5.485714 5.485714h107.885714c1.828571 0 3.657143 1.828571 5.485715 1.828572l58.514285 82.285714c1.828571 3.657143 1.828571 7.314286-1.828571 7.314286l-71.314286 40.228571c-3.657143 1.828571-7.314286 0-7.314286-3.657143l-18.285714-58.514285c-1.828571-1.828571-3.657143-3.657143-5.485714-3.657143h-64c-7.314286 1.828571-9.142857 5.485714-9.142857 9.142857z m618.057143 95.085714L332.8 747.885714c0 1.828571-1.828571 1.828571-1.828571 1.828572H274.285714c-1.828571 0-3.657143-1.828571-5.485714-3.657143l-80.457143-131.657143c-1.828571-1.828571-1.828571-1.828571-1.828571-3.657143v-42.057143c0-1.828571 1.828571-3.657143 3.657143-5.485714L650.971429 274.285714c1.828571-1.828571 1.828571-1.828571 3.657142-1.828571h36.571429c1.828571 0 1.828571 0 3.657143 1.828571l162.742857 109.714286c1.828571 3.657143 1.828571 7.314286-1.828571 9.142857z m-630.857143 122.514286l-32.914286-38.4c-1.828571-3.657143-1.828571-7.314286 1.828571-9.142857l455.314286-294.4c1.828571-1.828571 1.828571-1.828571 3.657143-1.828572h38.4c1.828571 0 3.657143 1.828571 3.657143 1.828572l20.114286 20.114285 1.828571 1.828572 18.285714 56.685714c1.828571 3.657143-3.657143 5.485714-5.485714 3.657143-16.457143-9.142857-43.885714-29.257143-53.028571-36.571429-1.828571-1.828571-5.485714-1.828571-7.314286 0-12.8 9.142857-27.428571 16.457143-40.228572 23.771429h-1.828571l-394.971429 274.285714c-1.828571 0-5.485714 0-7.314285-1.828571z m0 0"  horiz-adv-x="1024" />

    
    <glyph glyph-name="-power" unicode="&#59020;" d="M235.885714 254.171429c-21.942857 206.628571 106.057143 407.771429 113.371429 424.228571 7.314286 16.457143 96.914286 95.085714 179.2 65.828571 82.285714-29.257143 76.8-91.428571 53.028571-120.685714-20.114286-58.514286-104.228571-40.228571-126.171428-27.428571-20.114286 12.8-29.257143-12.8-29.257143-12.8 23.771429-91.428571 20.114286-186.514286 16.457143-228.571429 0 0-62.171429-38.4-67.657143-78.628571 0 0 5.485714 14.628571 64 53.028571 85.942857 54.857143 170.057143-25.6 170.057143-25.6 21.942857 29.257143 82.285714 10.971429 82.285714 10.971429v7.314285H786.285714c12.8 0 20.114286-12.8 14.628572-23.771428l-144.457143-270.628572c-3.657143-5.485714-9.142857-9.142857-14.628572-9.142857h-85.942857c5.485714 3.657143 9.142857 7.314286 14.628572 10.971429-25.6 5.485714-42.057143 14.628571-51.2 23.771428 34.742857 23.771429 38.4 56.685714 38.4 56.685715s-27.428571-31.085714-53.028572-32.914286c-171.885714-7.314286-186.514286 76.8-186.514285 76.8s-12.8-18.285714-71.314286 9.142857c-56.685714 27.428571-10.971429 91.428571-10.971429 91.428572z m0 0"  horiz-adv-x="1024" />

    
    <glyph glyph-name="-Id-warning" unicode="&#59021;" d="M234.057143 78.628571h590.628571V36.571429H234.057143zM276.114286 120.685714h506.514285v-42.057143H276.114286zM532.114286 652.8H530.285714c-9.142857 0-18.285714 7.314286-18.285714 18.285714V749.714286c0 10.971429 9.142857 18.285714 18.285714 18.285714h1.828572c9.142857 0 18.285714-7.314286 18.285714-18.285714v-78.628572c0-10.971429-9.142857-18.285714-18.285714-18.285714zM358.4 577.828571c-9.142857-9.142857-20.114286-9.142857-27.428571-1.828571l-69.485715 69.485714c-7.314286 7.314286-7.314286 18.285714 0 25.6l1.828572 1.828572c7.314286 7.314286 18.285714 7.314286 25.6 0l69.485714-69.485715c5.485714-7.314286 5.485714-20.114286 0-25.6zM722.285714 577.828571c9.142857-9.142857 20.114286-9.142857 27.428572-1.828571l69.485714 69.485714c7.314286 7.314286 7.314286 18.285714 0 25.6l-1.828571 1.828572c-7.314286 7.314286-18.285714 7.314286-25.6 0L722.285714 603.428571c-7.314286-7.314286-7.314286-20.114286 0-25.6zM530.285714 585.142857c-117.028571 0-210.285714-95.085714-210.285714-210.285714v-232.228572h422.4V374.857143C740.571429 490.057143 647.314286 585.142857 530.285714 585.142857z m106.057143-221.257143l-129.828571-151.771428c-1.828571-1.828571-5.485714-1.828571-7.314286-1.828572-1.828571 1.828571-3.657143 3.657143-3.657143 7.314286l14.628572 106.057143h-80.457143c-1.828571 0-5.485714 1.828571-5.485715 3.657143-1.828571 1.828571 0 5.485714 0 7.314285l129.828572 151.771429c1.828571 1.828571 5.485714 1.828571 7.314286 1.828571 1.828571-1.828571 3.657143-3.657143 3.657142-7.314285l-14.628571-106.057143h80.457143c1.828571 0 5.485714-1.828571 5.485714-3.657143 1.828571-3.657143 1.828571-5.485714 0-7.314286z"  horiz-adv-x="1024" />

    
    <glyph glyph-name="-phone" unicode="&#59022;" d="M685.714286 54.857143c-12.8 0-23.771429 1.828571-34.742857 5.485714-12.8 3.657143-124.342857 36.571429-276.114286 188.342857-146.285714 146.285714-182.857143 261.485714-186.514286 276.114286-7.314286 16.457143-9.142857 36.571429-5.485714 58.514286 5.485714 20.114286 14.628571 40.228571 27.428571 53.028571l56.685715 56.685714c14.628571 14.628571 31.085714 20.114286 47.542857 20.114286 20.114286 0 40.228571-9.142857 54.857143-27.428571l84.114285-106.057143c14.628571-18.285714 14.628571-47.542857 5.485715-67.657143l-42.057143-65.828571c3.657143-12.8 16.457143-45.714286 62.171428-91.428572 49.371429-45.714286 80.457143-58.514286 91.428572-62.171428l67.657143 40.228571c7.314286 5.485714 18.285714 7.314286 29.257142 7.314286 14.628571 0 27.428571-5.485714 36.571429-10.971429l106.057143-84.114286c14.628571-12.8 25.6-31.085714 25.6-49.371428 1.828571-20.114286-5.485714-38.4-20.114286-53.028572l-56.685714-56.685714c-12.8-20.114286-43.885714-31.085714-73.142857-31.085714z m0 0"  horiz-adv-x="1024" />

    
    <glyph glyph-name="-peoplenum" unicode="&#59023;" d="M508.342857 590.628571c9.142857 0 18.285714-1.828571 27.428572-3.657142s16.457143-5.485714 25.6-9.142858c7.314286-3.657143 14.628571-7.314286 20.114285-12.8 5.485714-3.657143 9.142857-9.142857 14.628572-14.628571 7.314286-10.971429 14.628571-21.942857 18.285714-34.742857 3.657143-10.971429 5.485714-23.771429 7.314286-36.571429 1.828571-12.8 1.828571-27.428571 1.828571-40.228571 1.828571-1.828571 3.657143-3.657143 5.485714-7.314286 1.828571-3.657143 1.828571-5.485714 3.657143-9.142857 0-3.657143 1.828571-9.142857 0-12.8 0-5.485714-1.828571-10.971429-3.657143-16.457143-1.828571-3.657143-3.657143-7.314286-7.314285-9.142857-1.828571-1.828571-5.485714-3.657143-9.142857-5.485714-1.828571-5.485714-3.657143-10.971429-3.657143-16.457143-1.828571-3.657143-3.657143-9.142857-5.485715-12.8-1.828571-3.657143-3.657143-7.314286-7.314285-9.142857-5.485714-3.657143-9.142857-9.142857-14.628572-12.8-3.657143-5.485714-7.314286-10.971429-7.314285-18.285715 0-5.485714-1.828571-9.142857-1.828572-14.628571 0-5.485714 1.828571-10.971429 3.657143-14.628571 1.828571-5.485714 5.485714-10.971429 10.971429-14.628572 5.485714-5.485714 12.8-9.142857 20.114285-12.8 9.142857-3.657143 16.457143-7.314286 25.6-9.142857 9.142857-1.828571 18.285714-5.485714 27.428572-9.142857 7.314286-3.657143 16.457143-7.314286 23.771428-12.8 7.314286-5.485714 10.971429-12.8 14.628572-20.114286 1.828571-5.485714 3.657143-12.8 3.657143-20.114286 0-7.314286 1.828571-16.457143 1.828571-23.771428s0-14.628571-1.828571-21.942857c0-5.485714-1.828571-10.971429-5.485715-16.457143-3.657143-3.657143-9.142857-5.485714-12.8-7.314286-9.142857-1.828571-18.285714-5.485714-27.428571-7.314286-10.971429-1.828571-21.942857-3.657143-36.571429-5.485714-12.8-1.828571-25.6-3.657143-40.228571-3.657143-12.8-1.828571-25.6-1.828571-38.4-1.828571-12.8 0-21.942857-1.828571-31.085714-1.828572s-20.114286 0-31.085715 1.828572c-12.8 0-23.771429 1.828571-36.571428 1.828571-12.8 1.828571-25.6 1.828571-38.4 3.657143-12.8 1.828571-23.771429 3.657143-34.742857 5.485714-10.971429 1.828571-18.285714 3.657143-25.6 5.485715-5.485714 0-9.142857 1.828571-12.8 5.485714-5.485714 7.314286-7.314286 16.457143-7.314286 23.771429-1.828571 18.285714-1.828571 34.742857 1.828571 53.028571 0 10.971429 5.485714 20.114286 12.8 27.428571 7.314286 7.314286 16.457143 10.971429 25.6 14.628572 10.971429 3.657143 20.114286 7.314286 31.085715 10.971428 10.971429 1.828571 20.114286 7.314286 29.257142 12.8 5.485714 3.657143 10.971429 7.314286 14.628572 12.8 3.657143 3.657143 5.485714 7.314286 7.314286 10.971429 1.828571 3.657143 1.828571 7.314286 1.828571 12.8v14.628571c0 7.314286-3.657143 12.8-7.314286 18.285715-5.485714 5.485714-9.142857 9.142857-14.628571 12.8-3.657143 3.657143-5.485714 5.485714-7.314286 9.142857-1.828571 3.657143-3.657143 9.142857-5.485714 12.8-1.828571 5.485714-3.657143 10.971429-3.657143 16.457143-1.828571 0-3.657143 1.828571-7.314286 3.657143-1.828571 1.828571-3.657143 3.657143-5.485714 7.314285-1.828571 3.657143-3.657143 9.142857-5.485714 12.8-1.828571 5.485714-1.828571 9.142857-1.828572 14.628572 0 3.657143 1.828571 7.314286 1.828572 10.971428l5.485714 10.971429c0 12.8 0 25.6 1.828571 38.4 1.828571 10.971429 3.657143 23.771429 7.314286 34.742857 3.657143 10.971429 7.314286 21.942857 14.628572 32.914286 5.485714 9.142857 12.8 16.457143 20.114285 21.942857 7.314286 5.485714 14.628571 9.142857 21.942857 12.8 7.314286 3.657143 14.628571 5.485714 21.942858 7.314286 9.142857 3.657143 16.457143 3.657143 23.771428 3.657142z m0 0M411.428571 309.028571c0-3.657143-1.828571-7.314286-3.657142-9.142857-1.828571-1.828571-3.657143-5.485714-7.314286-7.314285-9.142857-5.485714-20.114286-10.971429-31.085714-14.628572-10.971429-3.657143-21.942857-7.314286-32.914286-12.8-10.971429-3.657143-20.114286-10.971429-27.428572-18.285714-7.314286-7.314286-12.8-18.285714-14.628571-31.085714 0-3.657143-1.828571-9.142857-1.828571-12.8v-10.971429s0-1.828571-1.828572-1.828571c0 0 0-1.828571-1.828571-1.828572-14.628571 1.828571-29.257143 1.828571-45.714286 3.657143-14.628571 1.828571-29.257143 3.657143-42.057143 5.485714-12.8 1.828571-23.771429 3.657143-32.914286 5.485715-9.142857 1.828571-14.628571 3.657143-16.457142 5.485714-3.657143 1.828571-5.485714 10.971429-7.314286 23.771428 1.828571 12.8 1.828571 29.257143 5.485714 51.2 1.828571 10.971429 5.485714 20.114286 14.628572 27.428572 7.314286 5.485714 16.457143 10.971429 27.428571 14.628571 10.971429 3.657143 21.942857 7.314286 32.914286 9.142857 10.971429 3.657143 21.942857 7.314286 29.257143 12.8 7.314286 3.657143 12.8 9.142857 16.457142 12.8 3.657143 3.657143 5.485714 7.314286 7.314286 10.971429s1.828571 7.314286 1.828572 12.8v12.8c0 7.314286-3.657143 12.8-7.314286 18.285714-3.657143 3.657143-9.142857 9.142857-14.628572 12.8-3.657143 1.828571-5.485714 5.485714-7.314285 9.142857-1.828571 3.657143-3.657143 9.142857-5.485715 12.8-1.828571 3.657143-3.657143 9.142857-3.657142 14.628572-1.828571 0-3.657143 1.828571-7.314286 3.657143-1.828571 1.828571-3.657143 3.657143-5.485714 7.314285-1.828571 3.657143-3.657143 7.314286-5.485715 12.8-3.657143 5.485714-5.485714 10.971429-3.657143 14.628572 0 5.485714 1.828571 9.142857 3.657143 12.8l5.485715 10.971428c0 12.8 0 23.771429 1.828571 36.571429 1.828571 10.971429 3.657143 21.942857 7.314286 32.914286 3.657143 10.971429 9.142857 21.942857 14.628571 31.085714 5.485714 9.142857 12.8 16.457143 20.114286 21.942857 7.314286 5.485714 14.628571 10.971429 23.771428 12.8 7.314286 3.657143 16.457143 5.485714 23.771429 7.314286 7.314286 1.828571 16.457143 1.828571 23.771429 1.828571 18.285714 0 36.571429-3.657143 51.2-12.8 14.628571-7.314286 27.428571-16.457143 34.742857-25.6 5.485714-5.485714 7.314286-12.8 9.142857-18.285714 1.828571-5.485714 3.657143-12.8 5.485714-18.285714-7.314286-3.657143-14.628571-10.971429-23.771428-18.285715-7.314286-7.314286-14.628571-16.457143-21.942858-25.6-7.314286-10.971429-12.8-21.942857-16.457142-34.742857-3.657143-12.8-7.314286-25.6-9.142858-36.571428-1.828571-12.8-1.828571-25.6-1.828571-40.228572-3.657143-3.657143-5.485714-7.314286-7.314286-10.971428-1.828571-3.657143-1.828571-9.142857-3.657143-12.8 0-5.485714 0-10.971429 1.828572-16.457143 1.828571-7.314286 3.657143-10.971429 5.485714-14.628572 1.828571-3.657143 3.657143-5.485714 5.485714-7.314285 1.828571-1.828571 3.657143-3.657143 7.314286-3.657143 1.828571-5.485714 3.657143-10.971429 3.657143-16.457143 1.828571-3.657143 3.657143-9.142857 5.485714-14.628571 1.828571-5.485714 5.485714-7.314286 7.314286-10.971429 1.828571-1.828571 5.485714-3.657143 5.485714-5.485714 1.828571-1.828571 1.828571-3.657143 3.657143-3.657143 0-1.828571 1.828571-3.657143 1.828572-5.485714 3.657143-3.657143 3.657143-5.485714 3.657142-9.142858M612.571429 309.028571c0 3.657143 1.828571 7.314286 0 7.314286 0 1.828571 0 3.657143 1.828571 5.485714l3.657143 3.657143 5.485714 5.485715c3.657143 1.828571 5.485714 5.485714 7.314286 10.971428 1.828571 5.485714 3.657143 9.142857 5.485714 14.628572 1.828571 5.485714 3.657143 10.971429 3.657143 16.457142 1.828571 0 3.657143 1.828571 7.314286 3.657143 1.828571 1.828571 3.657143 3.657143 5.485714 7.314286 1.828571 3.657143 3.657143 7.314286 5.485714 14.628571 1.828571 5.485714 1.828571 10.971429 1.828572 16.457143 0 5.485714-1.828571 9.142857-3.657143 12.8-1.828571 3.657143-3.657143 7.314286-7.314286 10.971429 0 12.8 0 25.6-1.828571 40.228571-1.828571 10.971429-5.485714 23.771429-9.142857 36.571429s-9.142857 23.771429-16.457143 34.742857c-5.485714 9.142857-12.8 16.457143-21.942857 25.6-7.314286 7.314286-16.457143 14.628571-23.771429 18.285714 1.828571 7.314286 3.657143 14.628571 5.485714 18.285715 1.828571 5.485714 3.657143 10.971429 9.142857 18.285714 7.314286 9.142857 18.285714 18.285714 34.742858 25.6 14.628571 7.314286 32.914286 12.8 51.2 12.8 7.314286 0 14.628571 0 23.771428-1.828572 7.314286-1.828571 16.457143-3.657143 23.771429-7.314285s16.457143-7.314286 23.771428-12.8c7.314286-5.485714 14.628571-12.8 20.114286-21.942857 7.314286-9.142857 12.8-20.114286 14.628571-31.085715 3.657143-10.971429 5.485714-21.942857 7.314286-32.914285 1.828571-12.8 1.828571-25.6 1.828572-36.571429 1.828571-1.828571 3.657143-5.485714 5.485714-10.971429 7.314286-1.828571 7.314286-5.485714 7.314286-10.971428 0-3.657143 0-9.142857-1.828572-14.628572-1.828571-5.485714-3.657143-9.142857-5.485714-12.8-1.828571-3.657143-3.657143-5.485714-5.485714-7.314285-1.828571-1.828571-3.657143-1.828571-7.314286-3.657143-1.828571-5.485714-3.657143-10.971429-3.657143-14.628572-1.828571-3.657143-3.657143-9.142857-5.485714-12.8-1.828571-3.657143-5.485714-7.314286-7.314286-9.142857-5.485714-3.657143-10.971429-9.142857-14.628571-12.8-3.657143-3.657143-7.314286-10.971429-7.314286-18.285714v-12.8c0-3.657143 0-7.314286 1.828571-12.8 1.828571-3.657143 3.657143-7.314286 7.314286-10.971429 3.657143-3.657143 9.142857-7.314286 16.457143-12.8 9.142857-5.485714 18.285714-9.142857 29.257143-12.8 10.971429-3.657143 21.942857-5.485714 32.914285-9.142857 10.971429-3.657143 20.114286-9.142857 27.428572-14.628571 7.314286-5.485714 12.8-14.628571 14.628571-27.428572 3.657143-21.942857 3.657143-38.4 1.828572-51.2-1.828571-12.8-3.657143-21.942857-7.314286-23.771428-1.828571-1.828571-7.314286-3.657143-16.457143-5.485714-9.142857-1.828571-20.114286-3.657143-32.914286-5.485715-12.8-1.828571-27.428571-3.657143-42.057142-5.485714-14.628571-1.828571-29.257143-3.657143-45.714286-3.657143 0 0 0 1.828571-1.828572 1.828572 0 0 0 1.828571-1.828571 1.828571v10.971429c0 3.657143 0 7.314286-1.828571 12.8-1.828571 14.628571-7.314286 23.771429-14.628572 31.085714-7.314286 7.314286-16.457143 12.8-27.428571 18.285714-10.971429 3.657143-21.942857 9.142857-32.914286 12.8-10.971429 3.657143-21.942857 9.142857-31.085714 14.628572-3.657143 1.828571-7.314286 5.485714-7.314286 7.314285 0 1.828571-1.828571 3.657143-1.828571 9.142857"  horiz-adv-x="1024" />

    
    <glyph glyph-name="-shop" unicode="&#59024;" d="M835.657143 521.142857c0 1.828571 0 3.657143-1.828572 5.485714l-56.685714 140.8c-10.971429 29.257143-38.4 49.371429-69.485714 47.542858H316.342857c-29.257143 1.828571-58.514286-16.457143-67.657143-45.714286l-60.342857-142.628572v-3.657142c-20.114286-60.342857 5.485714-126.171429 62.171429-157.257143 18.285714-9.142857 40.228571-14.628571 62.171428-14.628572 38.4 0 74.971429 16.457143 98.742857 47.542857 23.771429-29.257143 60.342857-47.542857 98.742858-47.542857 38.4 0 74.971429 16.457143 98.742857 47.542857 23.771429-29.257143 62.171429-47.542857 100.571428-47.542857 21.942857 0 42.057143 5.485714 62.171429 14.628572 56.685714 29.257143 82.285714 95.085714 64 155.428571z m-138.971429-23.771428H316.342857c-5.485714 0-12.8 1.828571-16.457143 7.314285-3.657143 3.657143-7.314286 10.971429-7.314285 16.457143 0 5.485714 1.828571 12.8 7.314285 16.457143 3.657143 3.657143 10.971429 7.314286 16.457143 7.314286h380.342857c12.8-1.828571 21.942857-10.971429 21.942857-23.771429 0-10.971429-9.142857-21.942857-21.942857-23.771428z m95.085715-212.114286c0 5.485714-1.828571 12.8-7.314286 16.457143-3.657143 3.657143-10.971429 7.314286-16.457143 7.314285-1.828571 0-5.485714 0-7.314286-1.828571-51.2-18.285714-107.885714-10.971429-149.942857 23.771429-27.428571-23.771429-62.171429-36.571429-98.742857-36.571429-36.571429-1.828571-71.314286 10.971429-98.742857 32.914286-27.428571-23.771429-64-36.571429-98.742857-34.742857-20.114286 0-38.4 3.657143-56.685715 12.8H256l-3.657143 1.828571h-5.485714c-12.8 0-21.942857-10.971429-23.771429-21.942857v-166.4c0-16.457143 7.314286-32.914286 18.285715-43.885714 10.971429-10.971429 27.428571-18.285714 43.885714-18.285715H731.428571c34.742857 0 62.171429 27.428571 62.171429 62.171429l-1.828571 166.4z m0 0"  horiz-adv-x="1024" />

    
    <glyph glyph-name="-personcount" unicode="&#59025;" d="M590.628571 42.057143s-3.657143 3.657143-7.314285 5.485714c-9.142857 7.314286-16.457143 12.8-21.942857 18.285714l-14.628572 14.628572c-1.828571 3.657143-7.314286 9.142857-12.8 16.457143-1.828571 3.657143-5.485714 7.314286-7.314286 10.971428-5.485714 9.142857-7.314286 14.628571-10.971428 21.942857-1.828571 5.485714-5.485714 10.971429-7.314286 18.285715-1.828571 7.314286-5.485714 20.114286-7.314286 34.742857-1.828571 9.142857-3.657143 27.428571-1.828571 42.057143 0 3.657143 0 12.8 3.657143 23.771428 1.828571 12.8 3.657143 18.285714 9.142857 34.742857 3.657143 9.142857 7.314286 16.457143 12.8 29.257143 0 7.314286 0 18.285714 1.828571 25.6 0 9.142857 5.485714 18.285714 10.971429 25.6 7.314286 5.485714 14.628571 12.8 21.942857 18.285715 3.657143 3.657143 7.314286 9.142857 10.971429 14.628571 3.657143 5.485714 5.485714 12.8 7.314285 18.285714 1.828571 7.314286 5.485714 14.628571 7.314286 23.771429 5.485714 1.828571 9.142857 3.657143 12.8 7.314286 3.657143 3.657143 7.314286 9.142857 10.971429 14.628571 3.657143 7.314286 5.485714 16.457143 5.485714 23.771429v20.114285c0 3.657143-1.828571 9.142857-3.657143 12.8-1.828571 3.657143-3.657143 7.314286-7.314286 9.142857 0 20.114286-1.828571 40.228571-3.657142 58.514286s-5.485714 36.571429-10.971429 53.028572c-5.485714 18.285714-14.628571 36.571429-25.6 51.2-5.485714 7.314286-12.8 14.628571-20.114286 20.114285-9.142857 7.314286-20.114286 12.8-31.085714 18.285715-10.971429 5.485714-23.771429 9.142857-36.571429 12.8-18.285714 7.314286-31.085714 9.142857-45.714285 9.142857-10.971429 0-21.942857 0-32.914286-1.828572-10.971429-1.828571-23.771429-5.485714-32.914286-9.142857-10.971429-5.485714-21.942857-12.8-32.914285-20.114286-10.971429-9.142857-21.942857-20.114286-29.257143-32.914285-9.142857-14.628571-16.457143-31.085714-21.942857-47.542857-3.657143-16.457143-7.314286-32.914286-9.142858-49.371429-1.828571-18.285714-3.657143-36.571429-3.657142-54.857143-3.657143-3.657143-7.314286-9.142857-9.142858-14.628571-1.828571-5.485714-3.657143-10.971429-3.657142-18.285715s0-14.628571 3.657142-21.942857c1.828571-7.314286 3.657143-12.8 7.314286-18.285714 1.828571-3.657143 5.485714-7.314286 9.142857-10.971429 3.657143-1.828571 5.485714-3.657143 9.142857-5.485714 1.828571-7.314286 3.657143-16.457143 7.314286-23.771428 1.828571-5.485714 5.485714-12.8 7.314286-18.285715 1.828571-5.485714 5.485714-10.971429 9.142857-14.628571 7.314286-7.314286 14.628571-12.8 21.942857-20.114286 7.314286-7.314286 10.971429-16.457143 10.971429-27.428571v-21.942857c0-5.485714-1.828571-12.8-3.657143-18.285715-1.828571-7.314286-5.485714-12.8-10.971429-18.285714-5.485714-7.314286-14.628571-12.8-21.942857-18.285714-12.8-9.142857-27.428571-14.628571-42.057143-18.285715-16.457143-3.657143-31.085714-9.142857-45.714285-14.628571-14.628571-5.485714-27.428571-12.8-38.4-21.942857-10.971429-10.971429-18.285714-25.6-20.114286-42.057143-3.657143-25.6-5.485714-51.2-3.657143-76.8 0-12.8 3.657143-25.6 10.971429-36.571429 5.485714-3.657143 12.8-5.485714 20.114285-7.314285 10.971429-1.828571 23.771429-5.485714 38.4-7.314286 14.628571-1.828571 32.914286-5.485714 51.2-7.314286 18.285714-1.828571 36.571429-3.657143 56.685715-5.485714 18.285714-1.828571 36.571429-3.657143 54.857142-3.657143 18.285714-1.828571 32.914286-1.828571 45.714286-1.828571s29.257143 0 47.542857 1.828571 38.4 1.828571 56.685715 3.657143c20.114286 1.828571 53.028571 5.485714 71.314285 7.314286-1.828571 0-1.828571 0-1.828571 1.828571-7.314286 1.828571-10.971429 5.485714-14.628572 7.314286zM705.828571 378.514286c-91.428571 0-164.571429-73.142857-164.571428-164.571429s73.142857-164.571429 164.571428-164.571428 164.571429 73.142857 164.571429 164.571428-73.142857 164.571429-164.571429 164.571429z m82.285715-188.342857h-58.514286v-58.514286c-1.828571-25.6-25.6-25.6-25.6-25.6s-21.942857 0-25.6 25.6v58.514286H621.714286c-25.6 1.828571-25.6 25.6-25.6 25.6s0 23.771429 25.6 25.6h60.342857v58.514285c1.828571 25.6 25.6 25.6 25.6 25.6s23.771429 0 25.6-25.6v-58.514285h58.514286c25.6-1.828571 25.6-25.6 25.6-25.6s-3.657143-25.6-29.257143-25.6z"  horiz-adv-x="1024" />

    
    <glyph glyph-name="-shebei" unicode="&#59026;" d="M623.542857 437.028571c-9.142857 0-16.457143 3.657143-23.771428 9.142858-5.485714 5.485714-9.142857 14.628571-9.142858 23.771428-1.828571 42.057143-36.571429 74.971429-78.628571 74.971429s-76.8-32.914286-78.628571-74.971429c0-10.971429-5.485714-21.942857-16.457143-29.257143-10.971429-5.485714-23.771429-5.485714-32.914286 0-10.971429 5.485714-16.457143 16.457143-16.457143 29.257143 0 80.457143 64 144.457143 144.457143 144.457143s144.457143-64 144.457143-144.457143c0-18.285714-14.628571-32.914286-32.914286-32.914286z m100.571429 0c-9.142857 0-16.457143 3.657143-23.771429 9.142858-5.485714 5.485714-9.142857 14.628571-9.142857 23.771428 0 98.742857-80.457143 181.028571-181.028571 181.028572-98.742857 0-181.028571-80.457143-181.028572-181.028572 0-18.285714-14.628571-31.085714-32.914286-31.085714s-32.914286 14.628571-32.914285 31.085714c3.657143 135.314286 113.371429 243.2 246.857143 243.2 135.314286 0 245.028571-107.885714 246.857142-243.2 0-9.142857-3.657143-16.457143-9.142857-23.771428-7.314286-5.485714-14.628571-9.142857-23.771428-9.142858z m78.628571-113.371428h-256v113.371428c0 12.8-5.485714 23.771429-16.457143 29.257143-10.971429 5.485714-23.771429 5.485714-34.742857 0-10.971429-5.485714-16.457143-18.285714-16.457143-29.257143v-113.371428h-256c-23.771429 0-42.057143-18.285714-42.057143-42.057143v-184.685714c0-21.942857 18.285714-42.057143 42.057143-42.057143h579.657143c23.771429 0 42.057143 18.285714 42.057143 42.057143V281.6c-1.828571 23.771429-20.114286 42.057143-42.057143 42.057143z m-519.314286-168.228572c-12.8 0-25.6 7.314286-31.085714 20.114286-5.485714 12.8-1.828571 27.428571 7.314286 36.571429s23.771429 12.8 36.571428 7.314285c14.628571-5.485714 21.942857-21.942857 20.114286-36.571428-3.657143-16.457143-18.285714-27.428571-32.914286-27.428572z m100.571429 0c-12.8 0-25.6 7.314286-31.085714 20.114286-5.485714 12.8-1.828571 27.428571 7.314285 36.571429s23.771429 12.8 36.571429 7.314285c14.628571-5.485714 21.942857-21.942857 20.114286-36.571428-5.485714-16.457143-18.285714-27.428571-32.914286-27.428572z m0 0"  horiz-adv-x="1024" />

    
    <glyph glyph-name="-record" unicode="&#59027;" d="M771.657143 641.828571C702.171429 711.314286 608.914286 749.714286 512 749.714286c-96.914286 0-190.171429-38.4-257.828571-106.057143C184.685714 574.171429 146.285714 480.914286 146.285714 384c0-96.914286 38.4-190.171429 107.885715-257.828571C321.828571 56.685714 415.085714 18.285714 512 18.285714c96.914286 0 190.171429 38.4 259.657143 107.885715 140.8 142.628571 140.8 373.028571 0 515.657142z m-85.942857-389.485714c-3.657143-7.314286-10.971429-12.8-18.285715-16.457143-1.828571 0-5.485714-1.828571-9.142857-1.828571-5.485714 0-10.971429 1.828571-16.457143 3.657143l-126.171428 76.8c-3.657143 1.828571-9.142857 5.485714-12.8 9.142857-16.457143 9.142857-23.771429 18.285714-23.771429 29.257143V565.028571c0 18.285714 14.628571 34.742857 34.742857 34.742858 18.285714 0 34.742857-14.628571 34.742858-34.742858v-195.657142l122.514285-71.314286c16.457143-9.142857 23.771429-31.085714 14.628572-45.714286z m0 0"  horiz-adv-x="1024" />

    
    <glyph glyph-name="-sousuo1" unicode="&#59028;" d="M689.371429 137.142857c-56.685714-42.057143-128-67.657143-202.971429-67.657143C298.057143 69.485714 146.285714 223.085714 146.285714 409.6 146.285714 597.942857 298.057143 749.714286 486.4 749.714286s340.114286-151.771429 340.114286-340.114286c0-76.8-25.6-146.285714-67.657143-202.971429l106.057143-106.057142c18.285714-18.285714 18.285714-49.371429 0-67.657143s-49.371429-18.285714-67.657143 0l-107.885714 104.228571z m-202.971429 29.257143c133.485714 0 243.2 107.885714 243.2 243.2 0 133.485714-107.885714 243.2-243.2 243.2-133.485714 0-243.2-107.885714-243.2-243.2 0-133.485714 107.885714-243.2 243.2-243.2z m0 0"  horiz-adv-x="1024" />

    
    </font>
</defs>
</svg>
